<svg xmlns="http://www.w3.org/2000/svg" xmlns:xlink="http://www.w3.org/1999/xlink" width="45" height="45" viewBox="0 0 45 45">
  <defs>
    <clipPath id="clip-path">
      <rect id="Rectangle_2563" data-name="Rectangle 2563" width="45" height="45" transform="translate(261 4095)" fill="none" stroke="#707070" stroke-width="1"/>
    </clipPath>
  </defs>
  <g id="Mask_Group_188" data-name="Mask Group 188" transform="translate(-261 -4095)" clip-path="url(#clip-path)">
    <g id="_5b3d10297ad832ea75dfc9326137a6a1" data-name="5b3d10297ad832ea75dfc9326137a6a1" transform="translate(261.763 4096.207)">
      <path id="Path_8762" data-name="Path 8762" d="M4.382,1.322A3.049,3.049,0,0,1,7.443,4.382V28.5a4.441,4.441,0,0,0-3.061-1.174A4.436,4.436,0,0,0,1.322,28.5V4.382A3.049,3.049,0,0,1,4.382,1.322ZM25.8,2.474a3.043,3.043,0,1,0,2.166.889A3.044,3.044,0,0,0,25.8,2.474Zm0,2.292a.765.765,0,1,1-.765.765A.771.771,0,0,1,25.8,4.766Z" transform="translate(0 1.002)" fill="#fff"/>
      <path id="Path_8763" data-name="Path 8763" d="M8.972,2.646V29.415a.765.765,0,1,1-1.53,0,3.065,3.065,0,1,0-3.061,3.061H39.568a4.439,4.439,0,0,1,3.061,1.173V5.707a3.05,3.05,0,0,0-3.061-3.061h-9.2c.01.125.019.25.019.378A4.551,4.551,0,0,1,29.7,5.433L31.8,12.287A10.007,10.007,0,0,0,34.34,9.867l1.277.847a12.173,12.173,0,0,1-3.354,3.067l3.443,11.2-1.462.451-3.352-10.9a12.155,12.155,0,0,1-10.185,0l-3.355,10.9-1.462-.451,3.448-11.2a12.156,12.156,0,0,1-3.352-3.069l1.271-.847A10.006,10.006,0,0,0,19.8,12.289L21.9,5.44a4.551,4.551,0,0,1-.7-2.415c0-.128.009-.252.019-.378Zm3.061,25.239h4.589v1.53H12.033Zm7.65,0h4.585v1.53H19.684Zm7.644,0h4.591v1.53H27.328Zm7.652,0h4.589v1.53H34.979Z" transform="translate(0 3.505)" fill="#fff"/>
      <path id="Path_8764" data-name="Path 8764" d="M15.519,10.234l1.95,6.341a10.8,10.8,0,0,1-9.286,0l1.95-6.339a4.542,4.542,0,0,0,5.385,0ZM24.3,37.51h2.3a3.06,3.06,0,1,1,0,6.12H24.3ZM12.063.793V2.016a4.148,4.148,0,0,1,1.53,0V.793Z" transform="translate(12.973 0)" fill="#fff"/>
    </g>
  </g>
</svg>
