<svg xmlns="http://www.w3.org/2000/svg" xmlns:xlink="http://www.w3.org/1999/xlink" width="146" height="146" viewBox="0 0 146 146">
  <defs>
    <filter id="Ellipse_457" x="0" y="0" width="146" height="146" filterUnits="userSpaceOnUse">
      <feOffset dy="3" input="SourceAlpha"/>
      <feGaussianBlur stdDeviation="10" result="blur"/>
      <feFlood flood-opacity="0.161"/>
      <feComposite operator="in" in2="blur"/>
      <feComposite in="SourceGraphic"/>
    </filter>
    <linearGradient id="linear-gradient" x1="177.932" y1="-190.242" x2="177.932" y2="-213.074" gradientUnits="objectBoundingBox">
      <stop offset="0" stop-color="#15364d"/>
      <stop offset="1" stop-color="#061e2e"/>
    </linearGradient>
  </defs>
  <g id="Group_6427" data-name="Group 6427" transform="translate(-844 -4408)">
    <g transform="matrix(1, 0, 0, 1, 844, 4408)" filter="url(#Ellipse_457)">
      <circle id="Ellipse_457-2" data-name="Ellipse 457" cx="43" cy="43" r="43" transform="translate(30 27)" fill="#fff"/>
    </g>
    <g id="Group_6336" data-name="Group 6336" transform="translate(900 4458)">
      <g id="Group_6335" data-name="Group 6335" transform="translate(0)">
        <path id="Path_6740" data-name="Path 6740" d="M-14.021-125.121l2.83.023v8.485H-28v-35.112L-18.863-157l15.671,11.053v4.97l-2.929-1.691v-1.864l-13.192-9.01v34.384l5.293.081Z" transform="translate(28 157)" fill="#ff2600" fill-rule="evenodd"/>
        <path id="Path_6741" data-name="Path 6741" d="M-1.125-118.663H-3.549v-6.424l7.717-4.444,12.2,7.96-.081,16.445-11.919.2-.121-21.414-5.273,2.99Z" transform="translate(17.65 145.373)" fill-rule="evenodd" fill="url(#linear-gradient)"/>
      </g>
    </g>
  </g>
</svg>
