<svg xmlns="http://www.w3.org/2000/svg" xmlns:xlink="http://www.w3.org/1999/xlink" width="45" height="45" viewBox="0 0 45 45">
  <defs>
    <clipPath id="clip-path">
      <rect id="Rectangle_2564" data-name="Rectangle 2564" width="45" height="45" transform="translate(261 4229)" fill="none" stroke="#707070" stroke-width="1"/>
    </clipPath>
  </defs>
  <g id="Mask_Group_189" data-name="Mask Group 189" transform="translate(-261 -4229)" clip-path="url(#clip-path)">
    <g id="_5356a15e7e0d679834791135d09bc2d4" data-name="5356a15e7e0d679834791135d09bc2d4" transform="translate(261.069 4229)">
      <path id="Path_8800" data-name="Path 8800" d="M7.782,23a2.755,2.755,0,0,0,0,5.51A2.755,2.755,0,0,0,7.782,23Z" transform="translate(-0.945 -5.601)" fill="#121f25"/>
      <path id="Path_8801" data-name="Path 8801" d="M2.016,5.688a.691.691,0,0,0,.689.689H4.082v6.888a2.755,2.755,0,0,0,5.51,0,1.378,1.378,0,0,1,2.755,0v7.921a3.788,3.788,0,1,0,7.577,0v-8.61a2.751,2.751,0,0,1,1.9-2.617c-.145-1.648-.8-3.526.351-4.959H2.7A.691.691,0,0,0,2.016,5.688ZM18.892,26.352H7.182a2.411,2.411,0,0,0-1.033,4.58v7.819A3.448,3.448,0,0,0,9.593,42.2h6.888a3.448,3.448,0,0,0,3.444-3.444v-4.6a4.282,4.282,0,0,0,1.249-6.134,2.406,2.406,0,0,0-2.282-1.669Zm-.344,12.4a2.069,2.069,0,0,1-2.066,2.066H9.593a2.069,2.069,0,0,1-2.066-2.066V31.174h2.822c.472,3.2,4.978,5.035,8.2,3.7Zm0-5.368c-2.29,1.28-6.264.2-6.8-2.209h6.8v2.209Zm1.378-1.071v-1.38a2.418,2.418,0,0,0,.686-.483,2.837,2.837,0,0,1-.686,1.863ZM42.006,16.425l1.139-9.1A2.064,2.064,0,0,0,41.092,5H34.162a.691.691,0,0,0-.654.468l-.5,1.488-.5-1.488A.691.691,0,0,0,31.862,5H24.932A2.064,2.064,0,0,0,22.88,7.321l1.139,9.1a2.755,2.755,0,0,0,.039,4.723v3.827A4.827,4.827,0,0,0,28.879,29.8h1.253l-1.253,7.52a4.19,4.19,0,1,0,8.266,0L35.892,29.8h1.253a4.827,4.827,0,0,0,4.822-4.822V21.147a2.755,2.755,0,0,0,.039-4.723ZM37.71,6.377h1.4l-.593,3.557a.689.689,0,1,1-1.359-.226l.555-3.331ZM35.158,39.823a2.821,2.821,0,0,1-4.92-2.28L31.529,29.8H34.5l1.291,7.746a2.808,2.808,0,0,1-.628,2.28Zm5.431-19.67H25.435a1.378,1.378,0,0,1,0-2.755H40.589A1.378,1.378,0,0,1,40.589,20.153Z" transform="translate(0 0)" fill="#121f25"/>
    </g>
  </g>
</svg>
