<svg xmlns="http://www.w3.org/2000/svg" xmlns:xlink="http://www.w3.org/1999/xlink" width="45" height="45" viewBox="0 0 45 45">
  <defs>
    <clipPath id="clip-path">
      <rect id="Rectangle_2566" data-name="Rectangle 2566" width="45" height="45" transform="translate(267 4495)" fill="none" stroke="#707070" stroke-width="1"/>
    </clipPath>
  </defs>
  <g id="Mask_Group_191" data-name="Mask Group 191" transform="translate(-267 -4495)" clip-path="url(#clip-path)">
    <g id="_73b93314614846373aad3942629b1768" data-name="73b93314614846373aad3942629b1768" transform="translate(269.9 4497.619)">
      <path id="Path_8812" data-name="Path 8812" d="M16.944,16,8.28,7.339l.374-.373A.673.673,0,0,0,8.843,6.4L8.561,4.416a.673.673,0,0,0-.276-.454L4.326,1.136a.673.673,0,0,0-.377-.128v0a.673.673,0,0,0-.489.2L1.2,3.469a.673.673,0,0,0-.07.867L3.953,8.3a.673.673,0,0,0,.451.276l1.98.281a.673.673,0,0,0,.573-.188l.37-.374,8.664,8.664ZM32.594,2.481c.226.013.454.044.681.044L30.711,5.088a.688.688,0,0,0-.16.689l1.067,3.2a.687.687,0,0,0,.427.425l3.2,1.067a.688.688,0,0,0,.689-.163L38.5,7.75A5.213,5.213,0,0,1,37.11,11.5a5.335,5.335,0,0,1-5.164,1.366.687.687,0,0,0-.649.176L13.033,31.31a.687.687,0,0,0-.175.649,5.336,5.336,0,0,1-1.368,5.164,5.23,5.23,0,0,1-3.752,1.387l2.56-2.562a.688.688,0,0,0,.163-.689l-1.067-3.2a.684.684,0,0,0-.425-.425l-3.2-1.067a.688.688,0,0,0-.689.163L2.514,33.289A5.205,5.205,0,0,1,3.9,29.534a5.333,5.333,0,0,1,5.165-1.366.687.687,0,0,0,.646-.176L27.982,9.726a.687.687,0,0,0,.175-.649,5.328,5.328,0,0,1,3.772-6.553,2.092,2.092,0,0,1,.668-.043ZM19.205,16.026a.9.9,0,0,1,.443.129l-3.5,3.5a.891.891,0,0,1,.141-1.1L18.551,16.3a.909.909,0,0,1,.654-.269Zm6.829,4.187L39.091,33.266a.913.913,0,0,1,0,1.311L34.566,39.1a.909.909,0,0,1-1.31,0L20.2,26.045l1.31-1.308L34.566,37.793l.952-.952L22.46,23.784l1.312-1.311L36.83,35.53l.95-.953L24.724,21.521Z" transform="translate(0)" fill="#121f25"/>
    </g>
  </g>
</svg>
