<svg xmlns="http://www.w3.org/2000/svg" xmlns:xlink="http://www.w3.org/1999/xlink" width="201" height="88" viewBox="0 0 201 88">
  <defs>
    <clipPath id="clip-path">
      <rect id="Rectangle_2584" data-name="Rectangle 2584" width="201" height="88" rx="5" transform="translate(945 5359)" fill="none" stroke="#707070" stroke-width="1"/>
    </clipPath>
    <linearGradient id="linear-gradient" x1="389.686" y1="-372.696" x2="389.686" y2="-395.528" gradientUnits="objectBoundingBox">
      <stop offset="0" stop-color="#15364d"/>
      <stop offset="1" stop-color="#061e2e"/>
    </linearGradient>
  </defs>
  <g id="Mask_Group_199" data-name="Mask Group 199" transform="translate(-945 -5359)" clip-path="url(#clip-path)">
    <g id="Layer_1" transform="translate(972 5381)">
      <g id="_3297023376" data-name=" 3297023376" transform="translate(0 0)">
        <g id="Group_6472" data-name="Group 6472" transform="translate(40.658 13.983)">
          <path id="Path_9730" data-name="Path 9730" d="M103.091,22.387a4.744,4.744,0,0,0-3.753,3.771,28.537,28.537,0,0,0,.085,7.143,4.947,4.947,0,0,0,4.18,3.371,52.918,52.918,0,0,0,7.42-.114,4.812,4.812,0,0,0,3.838-3.715,33.868,33.868,0,0,0-.085-7.2,4.917,4.917,0,0,0-4.265-3.314,53.409,53.409,0,0,0-7.42.057Zm-.512,8.685c0,2.514-.341,2.229,3.07,2.229h3.667c2.815.057,2.3.628,2.3-5.143a13.919,13.919,0,0,0,0-1.885c-.171-.628-.6-.628-1.28-.628h-6.4c-1.621,0-1.365.571-1.365,2v3.429Z" transform="translate(-77.25 -22.187)" fill="#ff2600" fill-rule="evenodd"/>
          <path id="Path_9731" data-name="Path 9731" d="M171.043,33.561c-.341-.457-1.023-.286-1.706-.286-2.814,0-2.388.8-2.388-5.542,0-1.885-.256-2.171,1.791-2.114h4.009c4.009,0,3.326-.686,3.326,4.629,0,3.257.17,2.457-.853,3.085.256.686,1.365,1.771,1.706,2.571,2.046-.343,2.473-3.6,2.473-4.743,0-2.171.341-4.686-.6-6.4a4.724,4.724,0,0,0-4.35-2.514,53.9,53.9,0,0,0-6.823.057,5.048,5.048,0,0,0-3.752,3.143,34.178,34.178,0,0,0-.256,6.685,5.012,5.012,0,0,0,2.9,4.115c1.45.628,4.691.4,6.482.4A25.689,25.689,0,0,0,171.043,33.561Z" transform="translate(-101.022 -22.161)" fill="#ff2600" fill-rule="evenodd"/>
          <path id="Path_9732" data-name="Path 9732" d="M75.656,36.674l3.326.057V31.189a5.662,5.662,0,0,1,1.962,0,37.457,37.457,0,0,1,3.155,3.2l1.109,1.085c1.535,1.543.682,1.314,5.373,1.2l-.171-.286L85.464,31.36a20.656,20.656,0,0,1-1.706-1.829l1.706-1.771c.6-.572,1.109-1.2,1.706-1.829a7.762,7.762,0,0,1,.853-.8c.6-.628,2.3-2.343,2.559-2.743H86.4c-1.109,1.257-3.667,3.657-4.861,4.971-.256.285-.427.571-.938.628-.427,0-1.279.114-1.535-.114-.341-.343-.085-4.629-.17-5.486H75.657V36.674Z" transform="translate(-68.577 -22.245)" fill="#ff2600" fill-rule="evenodd"/>
          <path id="Path_9733" data-name="Path 9733" d="M195.1,22.841c-1.449.229-2.644,1.772-3.07,3.2-.341.971-.256,4.857-.17,6.171a4.936,4.936,0,0,0,2.3,4c1.62.971,3.5.686,5.629.686,1.962,0,4.009.228,5.458-.686a4.912,4.912,0,0,0,2.3-4.115c.085-3.2.512-6.228-1.365-8.114a3.748,3.748,0,0,0-1.962-1.143V32.27c0,1.829-1.023,1.257-4.52,1.257-5.117,0-4.52.686-4.605-2.914V22.841Z" transform="translate(-111.43 -22.412)" fill="#ff2600" fill-rule="evenodd"/>
          <path id="Path_9734" data-name="Path 9734" d="M127.29,36.7H130.7V28.525l5.884,5.486c.256.228.171.228.512.343V29.839c-1.023-.8-3.326-3.143-4.52-4.114a13.059,13.059,0,0,0-1.109-1.028l-2.132-2.114c-.427-.4-1.28-.286-2.047-.228V36.7Z" transform="translate(-87.632 -22.21)" fill="#ff2600" fill-rule="evenodd"/>
          <path id="Path_9735" data-name="Path 9735" d="M153.7,36.732h3.241c.171-.572.171-13.257.085-14.343h-3.412c-.085,1.314-.085,13.714.086,14.343Z" transform="translate(-97.326 -22.245)" fill="#ff2600" fill-rule="evenodd"/>
          <path id="Path_9736" data-name="Path 9736" d="M64.437,36.731h3.412V22.446l-3.412-.057Z" transform="translate(-64.437 -22.245)" fill="#ff2600" fill-rule="evenodd"/>
          <path id="Path_9737" data-name="Path 9737" d="M143.508,26.975l.085,9.657,3.326.057V22.347c-1.962-.172-1.535-.114-2.9,1.085-.6.628-.512.4-.512,1.543a15.66,15.66,0,0,1,0,2Z" transform="translate(-93.615 -22.203)" fill="#ff2600" fill-rule="evenodd"/>
          <path id="Path_9738" data-name="Path 9738" d="M214.2,43.148h12.878V39.776H217.87c-.682,1.372-.853,2-2.388,2.857A9.953,9.953,0,0,0,214.2,43.148Z" transform="translate(-119.705 -28.661)" fill="#ff2600" fill-rule="evenodd"/>
          <path id="Path_9739" data-name="Path 9739" d="M218.454,26.122h9.126V22.751H215.554a9.025,9.025,0,0,0,.938.571c.341.286.512.457.853.743.767.8.6,1.2,1.109,2.057Z" transform="translate(-120.204 -22.379)" fill="#ff2600" fill-rule="evenodd"/>
          <path id="Path_9740" data-name="Path 9740" d="M220.285,34.635h9.04V31.263H220.37Z" transform="translate(-121.95 -25.52)" fill="#ff2600" fill-rule="evenodd"/>
          <path id="Path_9741" data-name="Path 9741" d="M178.892,43.937l2.984.057-1.023-1.658-2.644-3.828h-3.07a59.8,59.8,0,0,0,3.752,5.428Z" transform="translate(-105.29 -28.194)" fill="#ff2600" fill-rule="evenodd"/>
        </g>
        <path id="Path_9742" data-name="Path 9742" d="M71.182,54.331V58.44H65.869V54.331H64.438v9.735h1.431V59.772h5.313v4.294h1.431V54.331Zm22.868,9.9a5.037,5.037,0,1,0-5.058-5.045A5.1,5.1,0,0,0,94.05,64.236Zm0-1.317a3.723,3.723,0,1,1,3.571-3.727A3.7,3.7,0,0,1,94.05,62.918Zm21.592,1.148h1.432V57.137l3.415,6.362,3.415-6.362v6.929h1.431V54.331H123.9l-3.415,6.362-3.415-6.362h-1.432Zm33.779-8.4V54.331h-7.156v9.735h7.156V62.734h-5.711V59.772h5.158V58.44h-5.158V55.663Zm19.92,8.558c2.3,0,3.542-1.247,3.542-2.891,0-1.743-1.346-2.395-3.287-2.848-1.6-.383-2.437-.695-2.437-1.6a1.68,1.68,0,0,1,1.856-1.473,4.189,4.189,0,0,1,2.791,1.19l.822-1.076a5.162,5.162,0,0,0-3.557-1.375c-1.955,0-3.373,1.233-3.373,2.863,0,1.757,1.318,2.352,3.3,2.82,1.629.368,2.437.722,2.437,1.643,0,.78-.694,1.488-2.041,1.488a4.5,4.5,0,0,1-3.2-1.36l-.864,1.063a5.621,5.621,0,0,0,4.01,1.558Z" transform="translate(-23.78 -19.982)" fill="#15364d"/>
        <path id="Path_9743" data-name="Path 9743" d="M15.294,34.879l3.1.025v9.283H0V5.772L10,0,27.143,12.093v5.438l-3.2-1.85V13.64L9.5,3.782V41.4l5.791.089Z" transform="translate(0 0)" fill="#ff2600" fill-rule="evenodd"/>
        <path id="Path_9744" data-name="Path 9744" d="M27.1,39.36H24.451V32.331l8.443-4.863,13.35,8.709-.088,17.992-13.041.221-.133-23.429-5.769,3.271Z" transform="translate(-9.023 -10.137)" fill-rule="evenodd" fill="url(#linear-gradient)"/>
      </g>
    </g>
  </g>
</svg>
