<svg xmlns="http://www.w3.org/2000/svg" width="146.712" height="55.012" viewBox="0 0 146.712 55.012">
  <g id="_1980553984" data-name=" 1980553984" transform="translate(-14.874 131.796)">
    <g id="Group_3026" data-name="Group 3026" transform="translate(15.315 -131.032)">
      <path id="Path_4802" data-name="Path 4802" d="M52.733-130.5a5.14,5.14,0,0,0-4.067,4.087,30.917,30.917,0,0,0,.092,7.741,5.361,5.361,0,0,0,4.529,3.654,57.428,57.428,0,0,0,8.042-.124,5.213,5.213,0,0,0,4.159-4.026,36.681,36.681,0,0,0-.092-7.8,5.33,5.33,0,0,0-4.622-3.592A57.869,57.869,0,0,0,52.733-130.5Zm-.555,9.413c0,2.725-.37,2.416,3.328,2.416h3.974c3.05.062,2.5.681,2.5-5.574a15.119,15.119,0,0,0,0-2.044c-.185-.681-.647-.681-1.386-.681H53.658c-1.756,0-1.479.619-1.479,2.168v3.715Z" transform="translate(-24.726 130.716)" fill="#45525c" fill-rule="evenodd"/>
      <path id="Path_4803" data-name="Path 4803" d="M117.757-118.378c-.37-.5-1.109-.31-1.849-.31-3.05,0-2.588.867-2.588-6.007,0-2.044-.277-2.353,1.941-2.291h4.344c4.344,0,3.605-.744,3.605,5.017,0,3.53.185,2.663-.924,3.344.277.744,1.479,1.92,1.849,2.787,2.218-.372,2.68-3.9,2.68-5.141,0-2.353.37-5.078-.646-6.936a5.123,5.123,0,0,0-4.714-2.725c-1.941,0-5.731-.248-7.394.063a5.471,5.471,0,0,0-4.067,3.406,37.118,37.118,0,0,0-.277,7.246,5.432,5.432,0,0,0,3.143,4.459c1.571.681,5.084.433,7.024.433a27.585,27.585,0,0,0-2.126-3.344Z" transform="translate(-41.869 130.734)" fill="#45525c" fill-rule="evenodd"/>
      <path id="Path_4804" data-name="Path 4804" d="M26.144-115.035l3.605.062v-6.007a6.129,6.129,0,0,1,2.126,0c.369.062,2.958,3.034,3.42,3.468l1.2,1.176c1.664,1.672.739,1.425,5.824,1.3l-.185-.31-5.362-5.45a22.356,22.356,0,0,1-1.849-1.982l1.849-1.92c.647-.619,1.2-1.3,1.849-1.981a8.559,8.559,0,0,1,.924-.867c.647-.681,2.5-2.539,2.774-2.972H37.791c-1.2,1.363-3.975,3.964-5.269,5.387-.278.31-.462.62-1.017.682-.462,0-1.386.124-1.664-.124-.369-.372-.092-5.017-.185-5.945H26.144v15.482Z" transform="translate(-18.472 130.673)" fill="#45525c" fill-rule="evenodd"/>
      <path id="Path_4805" data-name="Path 4805" d="M140.051-130.088c-1.571.248-2.865,1.92-3.327,3.468-.37,1.052-.278,5.264-.185,6.688a5.348,5.348,0,0,0,2.5,4.335c1.756,1.053,3.789.744,6.1.744,2.126,0,4.344.248,5.916-.744a5.324,5.324,0,0,0,2.5-4.459c.092-3.468.554-6.75-1.479-8.794a4.067,4.067,0,0,0-2.126-1.239v10.219c0,1.982-1.109,1.363-4.9,1.363-5.546,0-4.9.743-4.992-3.158v-8.423Z" transform="translate(-49.374 130.553)" fill="#45525c" fill-rule="evenodd"/>
      <path id="Path_4806" data-name="Path 4806" d="M75.194-115h3.7v-8.857l6.378,5.945c.277.248.185.248.555.372v-4.893c-1.109-.867-3.605-3.406-4.9-4.459a14.406,14.406,0,0,0-1.2-1.115L77.413-130.3c-.462-.433-1.386-.31-2.219-.248V-115Z" transform="translate(-32.212 130.699)" fill="#45525c" fill-rule="evenodd"/>
      <path id="Path_4807" data-name="Path 4807" d="M100.3-114.973h3.512c.185-.62.185-14.368.093-15.545h-3.7c-.092,1.425-.092,14.863.093,15.545Z" transform="translate(-39.203 130.674)" fill="#45525c" fill-rule="evenodd"/>
      <path id="Path_4808" data-name="Path 4808" d="M15.486-114.973h3.7v-15.483l-3.7-.062Z" transform="translate(-15.486 130.674)" fill="#45525c" fill-rule="evenodd"/>
      <path id="Path_4809" data-name="Path 4809" d="M90.6-125.531l.093,10.466L94.3-115v-15.545c-2.126-.186-1.664-.124-3.143,1.177-.647.681-.555.433-.555,1.672A16.892,16.892,0,0,1,90.6-125.531Z" transform="translate(-36.527 130.704)" fill="#45525c" fill-rule="evenodd"/>
      <path id="Path_4810" data-name="Path 4810" d="M157.757-110.346h13.958V-114h-9.982c-.739,1.487-.924,2.168-2.588,3.1A10.739,10.739,0,0,0,157.757-110.346Z" transform="translate(-55.341 126.046)" fill="#45525c" fill-rule="evenodd"/>
      <path id="Path_4811" data-name="Path 4811" d="M162.184-126.52h9.89v-3.654H159.042a9.884,9.884,0,0,0,1.016.62c.369.31.554.5.924.8.832.867.647,1.3,1.2,2.229Z" transform="translate(-55.701 130.577)" fill="#45525c" fill-rule="evenodd"/>
      <path id="Path_4812" data-name="Path 4812" d="M163.535-118.433h9.8v-3.654h-9.705Z" transform="translate(-56.96 128.312)" fill="#45525c" fill-rule="evenodd"/>
      <path id="Path_4813" data-name="Path 4813" d="M124.715-109.322l3.235.062-1.109-1.8-2.866-4.15h-3.328a64.881,64.881,0,0,0,4.067,5.883Z" transform="translate(-44.946 126.384)" fill="#45525c" fill-rule="evenodd"/>
    </g>
    <path id="Path_4814" data-name="Path 4814" d="M149.223-99.181c-.108,14.676-5.84,29.98,5.071,30.324,10.252.324,9.617-9.618,4.317-14.245-5.594-4.884-10.6-5.645-18.578-.9-6.352,3.778-13.765,8.811-22,12-18.359,7.117-79.8-1.828-95.96-20.256" transform="translate(-2.017 -9.137)" fill="none" stroke="#45525c" stroke-width="2.4"/>
    <g id="Group_3027" data-name="Group 3027" transform="translate(134.353 -131.796)">
      <path id="Path_4815" data-name="Path 4815" d="M209.494-98.487h0l.078-.033Z" transform="translate(-188.872 122.474)" fill="#45525c"/>
      <path id="Path_4816" data-name="Path 4816" d="M211.266-116.238a24.23,24.23,0,0,0,2.473-10.337v-1.063a3.344,3.344,0,0,0-3.34-3.34h-1.44v.9h1.44a2.445,2.445,0,0,1,2.442,2.442v1.063a22.171,22.171,0,0,1-.587,4.882,22.94,22.94,0,0,1-1.79,5.053l.8.4Z" transform="translate(-188.722 131.567)" fill="#45525c"/>
      <path id="Path_4817" data-name="Path 4817" d="M183.32-116.238l.8-.4a22.938,22.938,0,0,1-1.79-5.053,22.171,22.171,0,0,1-.587-4.882v-1.063a2.444,2.444,0,0,1,2.441-2.442h1.44v-.9h-1.44a3.344,3.344,0,0,0-3.34,3.34v1.063a24.241,24.241,0,0,0,2.473,10.337Z" transform="translate(-180.847 131.567)" fill="#45525c"/>
      <path id="Path_4818" data-name="Path 4818" d="M194.089-103.151a10.071,10.071,0,0,0,6.381-2.259,15.533,15.533,0,0,0,4.137-5.314.988.988,0,0,0-.441-1.326.988.988,0,0,0-1.327.441,13.585,13.585,0,0,1-3.6,4.649,8.143,8.143,0,0,1-5.154,1.832,8.143,8.143,0,0,1-5.154-1.832,13.594,13.594,0,0,1-3.6-4.649.988.988,0,0,0-1.326-.441.988.988,0,0,0-.441,1.326,15.523,15.523,0,0,0,4.136,5.314A10.071,10.071,0,0,0,194.089-103.151Z" transform="translate(-181.581 126.294)" fill="#45525c"/>
      <path id="Path_4819" data-name="Path 4819" d="M205.663-130.754a1.042,1.042,0,0,0,1.042,1.042,1.041,1.041,0,0,0,.795-.369h.544a.674.674,0,0,0,.674-.674.672.672,0,0,0-.2-.477.674.674,0,0,0-.477-.2H207.5a1.041,1.041,0,0,0-.795-.369A1.042,1.042,0,0,0,205.663-130.754Z" transform="translate(-187.799 131.796)" fill="#45525c"/>
      <path id="Path_4820" data-name="Path 4820" d="M189.595-130.754a1.043,1.043,0,0,1-1.042,1.042,1.041,1.041,0,0,1-.8-.369h-.544a.674.674,0,0,1-.674-.674.672.672,0,0,1,.2-.477.674.674,0,0,1,.477-.2h.544a1.041,1.041,0,0,1,.8-.369A1.043,1.043,0,0,1,189.595-130.754Z" transform="translate(-182.442 131.796)" fill="#45525c"/>
      <path id="Path_4821" data-name="Path 4821" d="M196.466-98.525h2.5a.818.818,0,0,0,.818-.818v-.756h-4.134v.756a.818.818,0,0,0,.818.818Z" transform="translate(-184.993 122.917)" fill="#45525c"/>
    </g>
    <path id="Path_4822" data-name="Path 4822" d="M22.858-97.842a5.712,5.712,0,0,1,5.706,5.706,5.713,5.713,0,0,1-5.706,5.706,5.713,5.713,0,0,1-5.706-5.706A5.713,5.713,0,0,1,22.858-97.842Z" transform="translate(-0.638 -9.512)" fill="#45525c"/>
    <text id="HEALTH" transform="translate(34.431 -100.323)" fill="#45525c" font-size="13" font-family="MyriadPro-Regular, Myriad Pro" style="mix-blend-mode: normal;isolation: isolate"><tspan x="0" y="0">HEALTH</tspan></text>
    <g id="Group_3029" data-name="Group 3029" transform="translate(14.874 -109.202)">
      <g id="Group_3028" data-name="Group 3028">
        <path id="Path_4823" data-name="Path 4823" d="M22.056-100.409a7.182,7.182,0,0,1,7.181,7.182,7.181,7.181,0,0,1-7.181,7.181,7.182,7.182,0,0,1-7.182-7.181A7.182,7.182,0,0,1,22.056-100.409Zm0,1.613a5.569,5.569,0,0,1,5.569,5.569,5.569,5.569,0,0,1-5.569,5.569,5.569,5.569,0,0,1-5.569-5.569A5.568,5.568,0,0,1,22.056-98.8Z" transform="translate(-14.874 100.409)" fill="#45525c" fill-rule="evenodd"/>
        <circle id="Ellipse_438" data-name="Ellipse 438" cx="3.251" cy="3.251" r="3.251" transform="translate(3.931 3.931)" fill="#45525c"/>
      </g>
      <path id="Path_4824" data-name="Path 4824" d="M24.476-91.771a.965.965,0,0,1,.963.964.965.965,0,0,1-.963.964.965.965,0,0,1-.963-.964A.965.965,0,0,1,24.476-91.771Z" transform="translate(-17.294 97.989)" fill="#45525c"/>
    </g>
  </g>
</svg>
