<svg xmlns="http://www.w3.org/2000/svg" xmlns:xlink="http://www.w3.org/1999/xlink" width="201" height="88" viewBox="0 0 201 88">
  <defs>
    <clipPath id="clip-path">
      <rect id="Rectangle_2582" data-name="Rectangle 2582" width="201" height="88" rx="5" transform="translate(221 5359)" fill="none" stroke="#707070" stroke-width="1"/>
    </clipPath>
  </defs>
  <g id="Mask_Group_197" data-name="Mask Group 197" transform="translate(-221 -5359)" clip-path="url(#clip-path)">
    <g id="Layer_1" transform="translate(69.852 5235.105)">
      <g id="_3441986512" data-name=" 3441986512" transform="translate(179.147 153.896)">
        <path id="Path_9671" data-name="Path 9671" d="M329.765,221.774s.318-.534.657-.424a.54.54,0,0,1,.363.513c-.011.041-.041.346-.6.325S329.714,221.882,329.765,221.774Z" transform="translate(-294.273 -205.457)" fill="#393185" fill-rule="evenodd"/>
        <path id="Path_9672" data-name="Path 9672" d="M320.3,175.493a4.777,4.777,0,0,0,2.353.62,71.469,71.469,0,0,0,10.02-.154,6.494,6.494,0,0,0,5.182-5.015c.522-2.215.332-6.88.024-9.225a6.739,6.739,0,0,0-3.512-4.35l-4.16,4.277s-.739,1.013.6,1.341c.894.014,3.562.117,4.123.71.239.253.117,1.036-.5.979a4.96,4.96,0,0,0-.769-.02c-.4.011.6.73-.125,1.153.052,6.661.449,5.826-3.17,5.752l-4.074-.02c-.124.779-.943.237-1.135.651-.5,1.074-.952.61-1.331.927a1.238,1.238,0,0,1-.888.342c-.219-.013-.543-.288-.623-.2Z" transform="translate(-287.068 -156.551)" fill="#2f98b5" fill-rule="evenodd"/>
        <path id="Path_9673" data-name="Path 9673" d="M312.108,227.583q.072.082.146.162C312.2,227.691,312.156,227.637,312.108,227.583Z" transform="translate(-280.803 -210.234)" fill="#393185" fill-rule="evenodd"/>
        <path id="Path_9674" data-name="Path 9674" d="M310.107,154.2a6.406,6.406,0,0,0-5.068,5.093c-.345,1.621-.345,8.257.115,9.646.3,1.238,1.84,3.4,2.948,3.672.16-.419,2.68-3.039,3.208-3.007.222.014.212-.044.212-.044l.506-2.354c.137-.465.917-.493.917-.493v-.7a1.044,1.044,0,0,1,.178-.725c.479-.684,1.3-.055,1.3-.055.671-.506.986.465.986.465l.287,1.04s2.135-.89,2.587-1.109a4.427,4.427,0,0,1,.917-.315.739.739,0,0,0,.719-.452c.041-.506.4-.356.4-.356.78,0,.6-.493.52-.753s.082-.438.561-.575.37-.671.164-.931.109-.383.191-.356.384-.041.849-.041.465-.424.274-.7-1.424-.383-1.424-.383a13.859,13.859,0,0,0-2-.109c-1.013.027-1.273-.3-1.273-.3-.752-.452-.26-1.451-.26-1.451-.592-.072-1.057.448-1.5.832a6.957,6.957,0,0,0-1.013,1.7,5.725,5.725,0,0,1-1.752,2.272l-1.617,1.317c-.372.3-.418.4-.355.873.138.885-.187,1.942-1.066,1.9-.575-.247-.575-1.246-.575-1.246l-.65.52c0-.324.011-.7.011-1.149V161.3c0-1.929-.345-2.7,1.843-2.7l6.809.029,3.889-4.1a6.739,6.739,0,0,0-2.523-.486,62.256,62.256,0,0,0-9.327.163Z" transform="translate(-275.21 -153.927)" fill="#213540" fill-rule="evenodd"/>
        <path id="Path_9675" data-name="Path 9675" d="M548,169.291c-.461-.617-1.382-.386-2.3-.386-3.8,0-3.225,1.08-3.225-7.485,0-2.546-.346-2.932,2.418-2.855H550.3c5.413,0,4.492-.926,4.492,6.25,0,4.4.231,3.318-1.152,4.167.345.926,1.843,2.392,2.3,3.472,2.764-.463,3.34-4.861,3.34-6.4,0-2.932.461-6.327-.806-8.642a6.38,6.38,0,0,0-5.874-3.4c-2.418,0-7.14-.309-9.214.077a6.819,6.819,0,0,0-5.068,4.244c-.461,1.543-.461,7.1-.345,9.028a6.768,6.768,0,0,0,3.916,5.556c1.958.849,6.334.54,8.753.54A34.494,34.494,0,0,0,548,169.291Z" transform="translate(-453.445 -153.896)" fill="#213540" fill-rule="evenodd"/>
        <path id="Path_9676" data-name="Path 9676" d="M219.747,174.011l4.492.077V166.6a7.641,7.641,0,0,1,2.649,0c.461.077,3.685,3.781,4.261,4.321l1.5,1.466c2.073,2.083.922,1.775,7.256,1.621l-.23-.386-6.68-6.791a27.762,27.762,0,0,1-2.3-2.469l2.3-2.392c.806-.772,1.5-1.62,2.3-2.469a10.551,10.551,0,0,1,1.152-1.08c.806-.849,3.11-3.164,3.455-3.7h-5.643c-1.5,1.7-4.952,4.938-6.565,6.713-.346.386-.576.772-1.267.849-.576,0-1.727.154-2.073-.154-.461-.463-.115-6.25-.23-7.408h-4.376v19.291Z" transform="translate(-210.188 -154.526)" fill="#213540" fill-rule="evenodd"/>
        <path id="Path_9677" data-name="Path 9677" d="M644.463,156.359c-1.958.309-3.57,2.392-4.146,4.321-.461,1.312-.346,6.559-.23,8.334a6.667,6.667,0,0,0,3.109,5.4c2.188,1.312,4.722.926,7.6.926,2.649,0,5.413.309,7.371-.926a6.635,6.635,0,0,0,3.11-5.556c.115-4.321.691-8.411-1.843-10.957a5.069,5.069,0,0,0-2.649-1.543v12.732c0,2.469-1.382,1.7-6.1,1.7-6.91,0-6.1.926-6.219-3.935V156.359Z" transform="translate(-531.481 -155.779)" fill="#213540" fill-rule="evenodd"/>
        <path id="Path_9678" data-name="Path 9678" d="M406.605,173.825h4.607V162.791l7.947,7.408c.345.309.23.309.691.463v-6.1c-1.382-1.08-4.492-4.244-6.1-5.556a17.714,17.714,0,0,0-1.5-1.389l-2.879-2.855c-.576-.54-1.728-.386-2.764-.309v19.368Z" transform="translate(-353.051 -154.263)" fill="#213540" fill-rule="evenodd"/>
        <path id="Path_9679" data-name="Path 9679" d="M501.86,174.088h4.376c.23-.772.23-17.9.115-19.368h-4.607C501.629,156.495,501.629,173.24,501.86,174.088Z" transform="translate(-425.732 -154.526)" fill="#213540" fill-rule="evenodd"/>
        <path id="Path_9680" data-name="Path 9680" d="M179.147,174.088h4.607V154.8l-4.607-.077Z" transform="translate(-179.147 -154.526)" fill="#213540" fill-rule="evenodd"/>
        <path id="Path_9681" data-name="Path 9681" d="M465.285,160.657,465.4,173.7l4.492.077V154.407c-2.649-.231-2.073-.154-3.916,1.466-.806.849-.691.54-.691,2.083a21.094,21.094,0,0,1,0,2.7Z" transform="translate(-397.91 -154.213)" fill="#213540" fill-rule="evenodd"/>
        <path id="Path_9682" data-name="Path 9682" d="M721.132,222.2h17.391v-4.553H726.084c-.922,1.852-1.152,2.7-3.225,3.858A13.419,13.419,0,0,0,721.132,222.2Z" transform="translate(-593.523 -202.635)" fill="#213540" fill-rule="evenodd"/>
        <path id="Path_9683" data-name="Path 9683" d="M729.939,160.584h12.323v-4.553H726.023a12.257,12.257,0,0,0,1.267.772c.461.386.691.617,1.152,1C729.478,158.886,729.248,159.426,729.939,160.584Z" transform="translate(-597.263 -155.528)" fill="#213540" fill-rule="evenodd"/>
        <path id="Path_9684" data-name="Path 9684" d="M743.144,191.391h12.208v-4.553H743.259Z" transform="translate(-610.353 -179.082)" fill="#213540" fill-rule="evenodd"/>
        <path id="Path_9685" data-name="Path 9685" d="M584.833,220.388l4.031.077-1.382-2.238-3.57-5.17h-4.146a80.735,80.735,0,0,0,5.068,7.331Z" transform="translate(-485.442 -199.128)" fill="#213540" fill-rule="evenodd"/>
        <path id="Path_9686" data-name="Path 9686" d="M330.349,193.828l-2.039.616a2.763,2.763,0,0,0-.821.506,3.67,3.67,0,0,1-.219.328s-.342.356-.438.479-.4.342-.219.671a7.168,7.168,0,0,1,.383,1.054s.082.671.547.506c.591-.208.748-1.274.589-1.752-.082-.246-.137-.315.014-.424s1.04-.9,1.04-.9l1.232-1.095-.068.014Z" transform="translate(-291.85 -184.415)" fill="#2f98b5" fill-rule="evenodd"/>
        <path id="Path_9687" data-name="Path 9687" d="M347.005,204.443l1.262-.729a2.157,2.157,0,0,1-.465,1.047,4.6,4.6,0,0,1-.944.684c-.055.02-.637.308-.623.014a17.428,17.428,0,0,0-.164-1.991s-.113-.719.15-.787.39.308.417.376.281,1.04.281,1.04l.086.345Z" transform="translate(-306.751 -191.188)" fill="#2f98b5" fill-rule="evenodd"/>
        <path id="Path_9688" data-name="Path 9688" d="M341.356,201.817c.287.219.336.842.336.842l.185,1.506.041.972a.466.466,0,0,1-.4.534c-.465.082-.534-.247-.575-.445s-.055-1.5-.055-1.5l-.062-1.116C340.832,202.366,340.872,201.449,341.356,201.817Z" transform="translate(-302.762 -190.468)" fill="#2f98b5" fill-rule="evenodd"/>
        <path id="Path_9689" data-name="Path 9689" d="M334.754,210.342a.828.828,0,0,1,.383-.589s.465-.3.534.062l-.041,2.005s-.014.89-.479.944c0,0-.8.158-.808-.369A7.5,7.5,0,0,1,334.754,210.342Z" transform="translate(-297.802 -196.512)" fill="#2f98b5" fill-rule="evenodd"/>
        <path id="Path_9690" data-name="Path 9690" d="M329.764,221.773s.318-.534.657-.425a.54.54,0,0,1,.363.513c-.01.041-.041.346-.6.325S329.713,221.881,329.764,221.773Z" transform="translate(-294.272 -205.456)" fill="#2f98b5" fill-rule="evenodd"/>
        <path id="Path_9691" data-name="Path 9691" d="M504.539,256.236v2.614h-3.03v-2.614h-1.423v6.65h1.423v-2.749h3.03v2.749h1.423v-6.65Zm16.371,6.65h1.607l-2.71-6.65h-1.6l-2.711,6.65h1.6l.426-1.046h2.962l.426,1.046Zm-2.894-2.256L519,258.2l.987,2.43Zm14.1,2.256h1.423v-4.3l3.2,4.3h1.433v-6.65h-1.433v4.3l-3.2-4.3h-1.423Zm16.245,0h2.381c2.236,0,3.823-1.384,3.823-3.33s-1.587-3.32-3.823-3.32h-2.381v6.65Zm1.423-1.3v-4.056h1.142a2.033,2.033,0,1,1,0,4.056ZM566.935,263c1.626,0,2.585-.842,2.585-2.11,0-1.229-.949-1.655-2.381-1.975-1.026-.232-1.423-.387-1.423-.871,0-.4.368-.716.978-.716a3.082,3.082,0,0,1,1.9.736l.745-1.026a3.84,3.84,0,0,0-2.6-.92,2.182,2.182,0,0,0-2.459,2.071c0,1.287,1,1.684,2.4,2,1.016.232,1.4.378,1.4.852,0,.416-.368.745-1.084.745a3.283,3.283,0,0,1-2.188-.871l-.823.978A4.271,4.271,0,0,0,566.935,263Z" transform="translate(-424.522 -232.052)" fill="#2f98b5"/>
      </g>
    </g>
  </g>
</svg>
