<svg xmlns="http://www.w3.org/2000/svg" xmlns:xlink="http://www.w3.org/1999/xlink" width="201" height="88" viewBox="0 0 201 88">
  <defs>
    <clipPath id="clip-path">
      <rect id="Rectangle_2585" data-name="Rectangle 2585" width="201" height="88" rx="5" transform="translate(1313 5506)" fill="none" stroke="#707070" stroke-width="1"/>
    </clipPath>
  </defs>
  <g id="Mask_Group_200" data-name="Mask Group 200" transform="translate(-1313 -5506)" clip-path="url(#clip-path)">
    <g id="Group_6478" data-name="Group 6478" transform="translate(1304.5 5482.3)">
      <g id="Group_6476" data-name="Group 6476" transform="translate(36.936 45.06)">
        <g id="Group_6473" data-name="Group 6473" transform="translate(14.551 11.925)">
          <path id="Path_9745" data-name="Path 9745" d="M163.2,110.021c-1.634,0-3.237.031-4.871-.031a5.436,5.436,0,0,1-1.326-.4,5.8,5.8,0,0,1-2.62-1.911,3.628,3.628,0,0,1-.925-1.726,5.738,5.738,0,0,0-.308-.771,3.934,3.934,0,0,1-.185-1.017c0-2.312-.031-4.624,0-6.937a4.8,4.8,0,0,1,.524-1.911A6.279,6.279,0,0,1,155,93.25a4.716,4.716,0,0,1,.555-.555,10.919,10.919,0,0,1,1.017-.586,6.708,6.708,0,0,1,3.3-.709c2.343.031,4.655,0,7,0a6.357,6.357,0,0,1,1.7.185,7.184,7.184,0,0,1,1.973.925,13.31,13.31,0,0,1,1.2,1.048,3.3,3.3,0,0,1,.771,1.079c.062.154.247.277.308.462a5.48,5.48,0,0,1,.524,2.528c-.031,2.251-.031,4.532,0,6.782a5.314,5.314,0,0,1-.586,2.066,8.71,8.71,0,0,1-2.158,2.466,5.583,5.583,0,0,1-1.264.709,3.882,3.882,0,0,1-1.881.37c-1.418-.062-2.836,0-4.254,0Zm.062-14.3h-4.9a1.07,1.07,0,0,0-.956.339,1.3,1.3,0,0,0-.216.863c-.031,1.172,0,2.374,0,3.545v4.1a1.823,1.823,0,0,0,.123.832.912.912,0,0,0,.894.493c3.3-.031,6.567,0,9.865,0h.308a.882.882,0,0,0,.832-.894V96.579a.771.771,0,0,0-.832-.863h-5.118Z" transform="translate(-133.423 -91.364)" fill="#f36f23" fill-rule="evenodd"/>
          <path id="Path_9746" data-name="Path 9746" d="M337.795,109.929a3.207,3.207,0,0,1-.462.062h-5.518a4.689,4.689,0,0,1-2.312-.586,8.7,8.7,0,0,1-2.528-2.22,5.2,5.2,0,0,1-.647-1.233,3.119,3.119,0,0,1-.339-1.665c.031-2.343.031-4.717,0-7.06a5.27,5.27,0,0,1,.308-1.541,5.872,5.872,0,0,1,2.189-2.96,6.673,6.673,0,0,1,1.911-1.017,8.461,8.461,0,0,1,3.268-.339c2.158-.031,4.285,0,6.443,0a3.929,3.929,0,0,1,1.665.339c.586.277,1.172.493,1.757.74a.817.817,0,0,1,.185.154l1.141,1.141a6.1,6.1,0,0,1,1.079,1.7,5.507,5.507,0,0,1,.462,2.528c0,2.035,0,4.039-.031,6.073a5.735,5.735,0,0,1-2.127,4.193l-.555.555c-.154.154-.308.154-.432,0a11.748,11.748,0,0,1-.74-.987c-.185-.277-.37-.586-.555-.863l-.555-.74c-.123-.154,0-.432.277-.524a.54.54,0,0,0,.432-.586c0-.617.062-1.233.062-1.85V97.073a5.061,5.061,0,0,0-.062-.709.9.9,0,0,0-.678-.678,6.021,6.021,0,0,0-.709-.062h-9.156a3.8,3.8,0,0,0-.617.062.878.878,0,0,0-.8.894V105a.853.853,0,0,0,.956.863c1.172.031,2.312.031,3.484,0a1.026,1.026,0,0,1,.925.617c.185.277.339.555.524.8.4.586.771,1.141,1.172,1.7A8.947,8.947,0,0,0,337.795,109.929Z" transform="translate(-253.107 -91.333)" fill="#f36f23" fill-rule="evenodd"/>
          <path id="Path_9747" data-name="Path 9747" d="M108.837,109.99h-3.484a8.642,8.642,0,0,0-.894,0,1.038,1.038,0,0,1-.956-.37c-2.1-2.1-4.193-4.162-6.258-6.289a1.954,1.954,0,0,0-1.665-.678,9.075,9.075,0,0,1-1.295,0c-.37,0-.432.062-.432.432v6.443c0,.462,0,.462-.462.462H89.631c0-.123-.031-.247-.031-.37v-17.6c0-.462.154-.586.617-.617h2.99c.432,0,.617.185.617.617v6.2c0,.493,0,.524.524.524h1.819a1.217,1.217,0,0,0,.925-.4c.8-.832,1.634-1.634,2.436-2.436.339-.339.617-.771.956-1.11,1.079-1.079,2.158-2.158,3.237-3.206a.569.569,0,0,1,.37-.154h4.224a1.175,1.175,0,0,1,.308.092c-.062.092-.092.216-.154.308a8.738,8.738,0,0,0-.74.771c-2.312,2.713-4.994,5.056-7.43,7.615a.605.605,0,0,0,0,1.017c.863.863,1.819,1.7,2.62,2.62,1.418,1.665,3.021,3.145,4.532,4.717.4.432.863.832,1.264,1.264A.843.843,0,0,1,108.837,109.99Z" transform="translate(-89.6 -91.364)" fill="#f36f23" fill-rule="evenodd"/>
          <path id="Path_9748" data-name="Path 9748" d="M405.639,99.871v6.289a.826.826,0,0,0,.894.894h10.235a.809.809,0,0,0,.863-.863c.031-2,.031-4.008.031-6.043V93.582c.031-.308.277-.493.555-.339a10.9,10.9,0,0,1,1.264.8c.277.216.493.493.74.709a5.633,5.633,0,0,1,1.2,1.85,5.533,5.533,0,0,1,.462,2.436v5.642a6.885,6.885,0,0,1-.432,2.374,6.315,6.315,0,0,1-.832,1.48,5.048,5.048,0,0,1-.832.987,8.1,8.1,0,0,1-1.357.925,6.47,6.47,0,0,1-.925.462,3.6,3.6,0,0,1-1.11.247q-4.763.046-9.526,0a3.132,3.132,0,0,1-1.356-.4,7.041,7.041,0,0,1-2.343-1.541,7.722,7.722,0,0,1-1.079-1.726,5.216,5.216,0,0,1-.4-.956,3.682,3.682,0,0,1-.123-1.017c0-2.528-.031-5.056,0-7.584a3.642,3.642,0,0,1,.247-.956,2.154,2.154,0,0,1,.277-.74c.308-.493.647-.987.987-1.449.185-.216.4-.4.617-.617a5.107,5.107,0,0,1,1.634-1.048c.185-.092.308,0,.308.216v.74c-.031,1.973-.031,3.884,0,5.8Z" transform="translate(-305.382 -92.529)" fill="#f36f23" fill-rule="evenodd"/>
          <path id="Path_9749" data-name="Path 9749" d="M240.755,106.795c-.339-.339-.647-.678-.987-1.017a9.581,9.581,0,0,0-1.264-1.233c-1.2-.894-2.1-2.127-3.268-3.052-.678-.555-1.264-1.233-1.942-1.788a7.275,7.275,0,0,0-.709-.4c0,.185-.031.339-.031.462v9.773c0,.462,0,.462-.462.462H228.7c-.277,0-.4-.062-.4-.37V91.688c0-.339.123-.432.432-.4a7.043,7.043,0,0,0,1.141,0,.922.922,0,0,1,.771.308,38.4,38.4,0,0,0,2.744,2.744c1.079.894,1.942,2,3.052,2.867.832.647,1.511,1.449,2.281,2.127.617.524,1.2,1.079,1.819,1.6a.969.969,0,0,1,.339.8c-.031,1.511,0,3.021,0,4.532v.4C240.817,106.764,240.786,106.795,240.755,106.795Z" transform="translate(-185.54 -91.282)" fill="#f36f23" fill-rule="evenodd"/>
          <path id="Path_9750" data-name="Path 9750" d="M302.954,110.059H299.07c-.308,0-.37-.092-.37-.37V92.055a.513.513,0,0,1,.586-.555h3.391c.247,0,.308.092.308.339v17.943C302.985,109.874,302.954,109.967,302.954,110.059Z" transform="translate(-234.236 -91.433)" fill="#f36f23" fill-rule="evenodd"/>
          <path id="Path_9751" data-name="Path 9751" d="M276.185,110.169h-4.254c0-.123-.031-.247-.031-.37V94.138a.8.8,0,0,1,.216-.524c.617-.647,1.233-1.264,1.85-1.881a.726.726,0,0,1,.647-.247,8.062,8.062,0,0,0,.863,0c.493,0,.709.185.709.709v17.973Z" transform="translate(-215.698 -91.42)" fill="#f36f23" fill-rule="evenodd"/>
          <path id="Path_9752" data-name="Path 9752" d="M482.206,92.6v4.285H470.922c-.277,0-.462-.062-.555-.339a6.438,6.438,0,0,0-.524-1.141,7.449,7.449,0,0,0-.832-1.11,7.606,7.606,0,0,0-.863-.863c-.092-.092-.216-.154-.308-.247a3.517,3.517,0,0,0-.339-.339c.154-.062.308-.216.432-.216H481.8A1.9,1.9,0,0,1,482.206,92.6Z" transform="translate(-350.996 -92.194)" fill="#f36f23" fill-rule="evenodd"/>
          <path id="Path_9753" data-name="Path 9753" d="M463.962,142.439c.308-.154.647-.277.956-.432a4.762,4.762,0,0,0,1.911-1.757c.308-.524.617-1.11.925-1.634a.81.81,0,0,1,.462-.216h11.129c.277,0,.37.062.339.339-.031,1.11-.031,2.22,0,3.36,0,.308-.092.4-.4.4H464.239a1.265,1.265,0,0,1-.339-.031C463.962,142.469,463.962,142.439,463.962,142.439Z" transform="translate(-348.506 -123.874)" fill="#f36f23" fill-rule="evenodd"/>
          <path id="Path_9754" data-name="Path 9754" d="M477.431,115.4h11.592c0,.092.031.185.031.247v3.638c0,.247-.092.308-.308.308H477.739c-.185,0-.339,0-.339-.277v-3.792C477.431,115.523,477.431,115.492,477.431,115.4Z" transform="translate(-357.844 -107.965)" fill="#f36f23" fill-rule="evenodd"/>
          <path id="Path_9755" data-name="Path 9755" d="M365.616,141.985h-3.391a.491.491,0,0,1-.37-.123c-.185-.247-.339-.555-.524-.8a9.256,9.256,0,0,0-.771-1.141,13.845,13.845,0,0,1-1.233-1.757c-.339-.493-.74-.956-1.079-1.449-.37-.524-.678-1.079-1.048-1.665.154,0,.247-.031.37-.031a23.057,23.057,0,0,0,2.528-.031c.647-.062.925.37,1.264.74a6.375,6.375,0,0,1,.462.771c.216.308.462.586.709.894a6.6,6.6,0,0,1,.4.586c.4.617.8,1.264,1.233,1.881.185.277.4.524.586.8A13.737,13.737,0,0,0,365.616,141.985Z" transform="translate(-274.701 -121.509)" fill="#f36f23" fill-rule="evenodd"/>
        </g>
        <g id="Group_6474" data-name="Group 6474" transform="translate(0 35.546)">
          <path id="Path_9756" data-name="Path 9756" d="M47.209,168.2H48.72l4.84,12.64H51l-3.021-8.632-3.021,8.632H42.4Zm-2.5,8.324h6.659v2.281H44.712Z" transform="translate(-42.4 -168.108)" fill="#221d5c"/>
          <path id="Path_9757" data-name="Path 9757" d="M121.2,180.232a3.759,3.759,0,0,1-1.572-1.6,5.417,5.417,0,0,1-.524-2.559v-3.453a5.916,5.916,0,0,1,.524-2.559,3.759,3.759,0,0,1,1.572-1.6,5.114,5.114,0,0,1,2.466-.555,4.349,4.349,0,0,1,2.127.524,4.161,4.161,0,0,1,1.541,1.48,6.542,6.542,0,0,1,.832,2.374H125.7a3.435,3.435,0,0,0-.432-1.079,1.862,1.862,0,0,0-.709-.678,1.883,1.883,0,0,0-.925-.247,2.233,2.233,0,0,0-1.141.277,1.8,1.8,0,0,0-.709.8,3.076,3.076,0,0,0-.247,1.264v3.453a3.076,3.076,0,0,0,.247,1.264,1.8,1.8,0,0,0,.709.8,2.156,2.156,0,0,0,1.141.277,1.83,1.83,0,0,0,1.634-.894,3.435,3.435,0,0,0,.432-1.079h2.466a6.775,6.775,0,0,1-.863,2.374,4.161,4.161,0,0,1-1.541,1.48,4.349,4.349,0,0,1-2.127.524A6.432,6.432,0,0,1,121.2,180.232Z" transform="translate(-95.454 -167.9)" fill="#221d5c"/>
          <path id="Path_9758" data-name="Path 9758" d="M192.84,168.2h1.511l4.84,12.64h-2.559l-3.021-8.632-3.021,8.632H188Zm-2.528,8.324h6.659v2.281h-6.659Z" transform="translate(-143.113 -168.108)" fill="#221d5c"/>
          <path id="Path_9759" data-name="Path 9759" d="M265.6,168.2h2.374v12.64H265.6Zm1.2,10.359h3.021a2.729,2.729,0,0,0,1.819-.555,2.024,2.024,0,0,0,.647-1.6v-3.73a2.024,2.024,0,0,0-.647-1.6,2.729,2.729,0,0,0-1.819-.555H266.8v-2.281h2.99a6.652,6.652,0,0,1,2.713.524,3.6,3.6,0,0,1,1.7,1.541,4.714,4.714,0,0,1,.586,2.466v3.576a4.825,4.825,0,0,1-.555,2.374,3.666,3.666,0,0,1-1.7,1.572,6.129,6.129,0,0,1-2.744.555h-2.96v-2.281Z" transform="translate(-196.789 -168.108)" fill="#221d5c"/>
          <path id="Path_9760" data-name="Path 9760" d="M339.8,168.2h2.374v12.64H339.8Zm.863,0h7.615v2.281h-7.615Zm0,5.21h6.659v2.281h-6.659Zm0,5.148h7.615v2.281h-7.615Z" transform="translate(-248.114 -168.108)" fill="#221d5c"/>
          <path id="Path_9761" data-name="Path 9761" d="M418.692,168.2h3.145v12.64h-2.158v-9.8l.092.555-2.4,7.861h-2.1l-2.4-7.676.092-.74v9.8H410.8V168.2h3.145l2.4,8.509Z" transform="translate(-297.225 -168.108)" fill="#221d5c"/>
          <path id="Path_9762" data-name="Path 9762" d="M492.1,175.969v4.871h-2.4v-4.871L486,168.2h2.5l2.4,5.426,2.4-5.426h2.5Z" transform="translate(-349.241 -168.108)" fill="#221d5c"/>
        </g>
        <g id="Group_6475" data-name="Group 6475" transform="translate(0.123)">
          <path id="Path_9763" data-name="Path 9763" d="M42.8,75.3v2.1l3.7,1.819.709.8,1.172.092v-2.1Z" transform="translate(-42.8 -68.302)" fill="#2d2c73"/>
          <path id="Path_9764" data-name="Path 9764" d="M66.48,75.3v2.1l-3.7,1.819-.709.8-1.172.092v-2.1Z" transform="translate(-55.32 -68.302)" fill="#221d5c"/>
          <path id="Path_9765" data-name="Path 9765" d="M49.5,92.3h1.11v19.792L46.2,107.684Z" transform="translate(-45.152 -80.061)" fill="#f36f23"/>
          <path id="Path_9766" data-name="Path 9766" d="M61.541,92.3H60.4v19.792l4.409-4.409Z" transform="translate(-54.974 -80.061)" fill="#db5626"/>
          <path id="Path_9767" data-name="Path 9767" d="M51.108,52.6a4.008,4.008,0,1,0,0,8.016h.247V52.631C51.293,52.631,51.2,52.6,51.108,52.6Z" transform="translate(-45.774 -52.6)" fill="#f36f23"/>
          <path id="Path_9768" data-name="Path 9768" d="M61.147,52.6a4.008,4.008,0,0,1,0,8.016H60.9V52.631C60.992,52.631,61.054,52.6,61.147,52.6Z" transform="translate(-55.32 -52.6)" fill="#db5626"/>
        </g>
      </g>
      <g id="Group_6477" data-name="Group 6477" transform="translate(34.5 41.7)">
        <path id="Path_9769" data-name="Path 9769" d="M34.5,45.615,42.485,41.7v4.008Z" transform="translate(-34.5 -41.7)" fill="#221d5c"/>
        <path id="Path_9770" data-name="Path 9770" d="M68.385,45.646,60.4,41.7v4.008Z" transform="translate(-52.415 -41.7)" fill="#2d2c73"/>
        <path id="Path_9771" data-name="Path 9771" d="M34.5,54.4l8.046,3.977-.062-3.884Z" transform="translate(-34.5 -50.485)" fill="#2d2c73"/>
        <path id="Path_9772" data-name="Path 9772" d="M68.385,54.5l-7.923,3.946L60.4,54.562Z" transform="translate(-52.415 -50.554)" fill="#221d5c"/>
        <path id="Path_9773" data-name="Path 9773" d="M39.641,61.771v-1.7c0-.8-.4-.8-.4-.8l-.031-2.189-.154-.092v-.062h-.031l-.031-.031v.062l-.062-.031L38.9,59.274s-.4,0-.4.8v1.7h1.141Z" transform="translate(-37.267 -52.214)" fill="#2d2c73"/>
      </g>
    </g>
  </g>
</svg>
