<svg xmlns="http://www.w3.org/2000/svg" xmlns:xlink="http://www.w3.org/1999/xlink" width="181" height="88" viewBox="0 0 181 88">
  <defs>
    <clipPath id="clip-path">
      <rect id="Rectangle_2583" data-name="Rectangle 2583" width="181" height="88" rx="5" transform="translate(597 5506)" fill="none" stroke="#707070" stroke-width="1"/>
    </clipPath>
    <linearGradient id="linear-gradient" x1="1487.619" y1="-621.85" x2="1515.849" y2="-562.83" gradientUnits="objectBoundingBox">
      <stop offset="0" stop-color="#2b572a"/>
      <stop offset="1" stop-color="#99ca3c"/>
    </linearGradient>
  </defs>
  <g id="Mask_Group_198" data-name="Mask Group 198" transform="translate(-597 -5506)" clip-path="url(#clip-path)">
    <g id="Group_6471" data-name="Group 6471" transform="translate(568.939 5490.469)">
      <g id="Group_6470" data-name="Group 6470" transform="translate(70.899 41.663)">
        <path id="Path_9692" data-name="Path 9692" d="M117.1,51.929a4.749,4.749,0,0,0-3.755,3.775,28.567,28.567,0,0,0,.085,7.148,4.948,4.948,0,0,0,4.182,3.374,52.934,52.934,0,0,0,7.425-.114,4.814,4.814,0,0,0,3.841-3.717,33.877,33.877,0,0,0-.085-7.205,4.921,4.921,0,0,0-4.268-3.317,53.445,53.445,0,0,0-7.425.057Zm-.512,8.692c0,2.517-.342,2.23,3.072,2.23h3.67c2.817.057,2.3.629,2.3-5.146a13.915,13.915,0,0,0,0-1.887c-.17-.628-.6-.628-1.28-.628h-6.4c-1.621,0-1.365.572-1.365,2v3.431Z" transform="translate(-91.235 -51.728)" fill="#2b572a" fill-rule="evenodd"/>
        <path id="Path_9693" data-name="Path 9693" d="M181.6,63.116c-.342-.458-1.024-.286-1.707-.286-2.817,0-2.39.8-2.39-5.547,0-1.887-.256-2.173,1.793-2.116h4.011c4.012,0,3.329-.686,3.329,4.632,0,3.26.171,2.459-.854,3.088.256.686,1.366,1.773,1.707,2.573,2.049-.343,2.475-3.6,2.475-4.746,0-2.174.342-4.689-.6-6.405a4.729,4.729,0,0,0-4.353-2.516,54.035,54.035,0,0,0-6.828.057A5.054,5.054,0,0,0,174.434,55a34.2,34.2,0,0,0-.256,6.69,5.016,5.016,0,0,0,2.9,4.118c1.45.629,4.694.4,6.487.4a25.632,25.632,0,0,0-1.963-3.088Z" transform="translate(-111.529 -51.706)" fill="#2b572a" fill-rule="evenodd"/>
        <path id="Path_9694" data-name="Path 9694" d="M90.916,66.219l3.328.057V60.729a5.675,5.675,0,0,1,1.963,0,37.3,37.3,0,0,1,3.158,3.2l1.11,1.087c1.536,1.544.683,1.315,5.377,1.2l-.171-.286-4.95-5.032a20.483,20.483,0,0,1-1.707-1.831l1.707-1.773c.6-.572,1.109-1.2,1.707-1.83a7.816,7.816,0,0,1,.854-.8c.6-.629,2.3-2.345,2.561-2.745h-4.182c-1.109,1.258-3.67,3.66-4.866,4.975-.256.286-.426.572-.939.629-.426,0-1.28.115-1.536-.114-.342-.344-.085-4.632-.171-5.49H90.916Z" transform="translate(-83.832 -51.778)" fill="#2b572a" fill-rule="evenodd"/>
        <path id="Path_9695" data-name="Path 9695" d="M204.144,52.35c-1.451.229-2.646,1.773-3.073,3.2-.342.972-.256,4.86-.17,6.176a4.939,4.939,0,0,0,2.3,4c1.622.972,3.5.686,5.634.686,1.963,0,4.012.229,5.463-.686a4.917,4.917,0,0,0,2.3-4.117c.085-3.2.512-6.234-1.366-8.121a3.754,3.754,0,0,0-1.963-1.144v9.436c0,1.83-1.024,1.258-4.523,1.258-5.121,0-4.523.687-4.609-2.916V52.35Z" transform="translate(-120.413 -51.92)" fill="#2b572a" fill-rule="evenodd"/>
        <path id="Path_9696" data-name="Path 9696" d="M139.786,66.245H143.2V58.068l5.889,5.49c.256.228.171.228.512.343V59.384c-1.025-.8-3.329-3.146-4.524-4.118a13.144,13.144,0,0,0-1.109-1.029l-2.134-2.116c-.427-.4-1.281-.286-2.049-.229V66.245Z" transform="translate(-100.098 -51.748)" fill="#2b572a" fill-rule="evenodd"/>
        <path id="Path_9697" data-name="Path 9697" d="M164.791,66.275h3.243c.171-.572.171-13.266.085-14.353h-3.415c-.085,1.315-.085,13.724.085,14.353Z" transform="translate(-108.373 -51.778)" fill="#2b572a" fill-rule="evenodd"/>
        <path id="Path_9698" data-name="Path 9698" d="M80.3,66.276h3.414v-14.3L80.3,51.922Z" transform="translate(-80.297 -51.778)" fill="#2b572a" fill-rule="evenodd"/>
        <path id="Path_9699" data-name="Path 9699" d="M155.137,56.518l.085,9.664,3.329.057V51.886c-1.963-.171-1.536-.114-2.9,1.087-.6.628-.512.4-.512,1.544a15.778,15.778,0,0,1,0,2Z" transform="translate(-105.206 -51.742)" fill="#2b572a" fill-rule="evenodd"/>
        <path id="Path_9700" data-name="Path 9700" d="M222.048,71.753h12.888V68.379h-9.218c-.683,1.372-.854,2-2.39,2.859a9.867,9.867,0,0,0-1.28.514Z" transform="translate(-127.478 -57.255)" fill="#2b572a" fill-rule="evenodd"/>
        <path id="Path_9701" data-name="Path 9701" d="M226.229,55.639h9.133V52.265H223.327a9.173,9.173,0,0,0,.939.572c.342.286.512.458.854.743.768.8.6,1.2,1.109,2.059Z" transform="translate(-127.903 -51.892)" fill="#2b572a" fill-rule="evenodd"/>
        <path id="Path_9702" data-name="Path 9702" d="M227.8,63.7h9.047V60.322H227.89Z" transform="translate(-129.394 -54.574)" fill="#2b572a" fill-rule="evenodd"/>
        <path id="Path_9703" data-name="Path 9703" d="M188.83,72.612l2.988.057-1.025-1.659-2.645-3.831h-3.073a59.785,59.785,0,0,0,3.755,5.433Z" transform="translate(-115.172 -56.856)" fill="#2b572a" fill-rule="evenodd"/>
      </g>
      <path id="Path_9704" data-name="Path 9704" d="M76.719,103.166c3.613,3.44,6.512,7.766,7.111,12.825A30.289,30.289,0,0,1,60.992,94.17C64.244,94.807,71.26,97.969,76.719,103.166Z" transform="translate(-2.973 -24.177)" fill="#99c63c" fill-rule="evenodd"/>
      <path id="Path_9705" data-name="Path 9705" d="M78.8,114.424a30.316,30.316,0,0,1-17.67-19.882c-.01-.117-.018-.233-.027-.352.261.053.545.123.851.207a39.235,39.235,0,0,1,12.814,11.486A25.157,25.157,0,0,1,78.8,114.424Z" transform="translate(-3.009 -24.184)" fill="#7cad41" fill-rule="evenodd"/>
      <path id="Path_9706" data-name="Path 9706" d="M87.345,115.905c-.53-5.583-3.647-10.309-7.552-14.025a42.2,42.2,0,0,0-12.044-7.867c7.893.995,22.911,4.986,34.792,20.578a30.185,30.185,0,0,1-10.126,1.735,30.576,30.576,0,0,1-5.07-.421Z" transform="translate(-5.222 -24.125)" fill="#99c63c" fill-rule="evenodd"/>
      <path id="Path_9707" data-name="Path 9707" d="M87.715,115.955c-.53-5.583-3.647-10.309-7.552-14.025a41.737,41.737,0,0,0-9.883-6.86q-.724-.482-1.42-.908c.562.079,1.158.176,1.781.289a51.636,51.636,0,0,1,27.974,21.364,30.649,30.649,0,0,1-10.9.14Z" transform="translate(-5.591 -24.174)" fill="#7cad41" fill-rule="evenodd"/>
      <path id="Path_9708" data-name="Path 9708" d="M68.684,48.854a.653.653,0,0,0-.923-.924,31.553,31.553,0,1,0,53.415,27.636c.009-.057.051-.313.061-.369a5.169,5.169,0,0,0-1.3-.192c0,.021-.008.111-.012.132A30.251,30.251,0,1,1,68.684,48.853Z" transform="translate(-2.149 -8.723)" fill="#2b572a"/>
      <path id="Path_9709" data-name="Path 9709" d="M60.7,92.245c.069,0,23.794-1.322,40.729,21.579l1.045-.778c-17.352-23.459-41.761-22.1-41.83-22.1Z" transform="translate(-2.856 -23.098)" fill="#2b572a"/>
      <path id="Path_9710" data-name="Path 9710" d="M60.642,92.252c2.657.116,10.589,3.372,16.616,9.114,3.781,3.6,6.781,8.172,7.179,13.534l1.3-.091c-.426-5.738-3.594-10.59-7.582-14.388-6.261-5.959-14.625-9.346-17.46-9.47l-.055,1.3Z" transform="translate(-2.856 -23.106)" fill="#2b572a"/>
      <path id="Path_9711" data-name="Path 9711" d="M173.4,80.853V79.371h-6.032v7.983h1.848V84.445h3.694V82.963h-3.694v-2.11Zm9.129,6.5h1.937L180.9,79.371h-1.824l-3.559,7.983h1.893l.708-1.711h3.706Zm-3.82-3.114,1.265-3.056,1.266,3.056Zm15.9,3.114-1.791-2.566a2.6,2.6,0,0,0,1.643-2.52c0-1.791-1.335-2.9-3.467-2.9h-3.456v7.983h1.848V85.13h1.7l1.539,2.224Zm-2.019-5.086c0,.866-.57,1.39-1.7,1.39h-1.5V80.876h1.5C192.023,80.876,192.593,81.39,192.593,82.268Zm14.567,5.086-.023-7.983h-1.518l-2.94,4.961-2.986-4.961h-1.528v7.983H199.9V82.668l2.336,3.842h.832l2.347-3.946.011,4.79Zm6.759.135c2.28,0,3.387-1.14,3.387-2.472,0-2.929-4.641-1.913-4.641-3.386,0-.5.422-.913,1.516-.913a4.506,4.506,0,0,1,2.212.626l.57-1.4a5.354,5.354,0,0,0-2.771-.708c-2.27,0-3.364,1.13-3.364,2.489,0,2.965,4.641,1.938,4.641,3.432,0,.489-.446.853-1.54.853a4.692,4.692,0,0,1-2.634-.831l-.627,1.39a5.677,5.677,0,0,0,3.25.923Z" transform="translate(-38.379 -19.206)" fill="#ef881c"/>
      <path id="Path_9712" data-name="Path 9712" d="M112.3,106.657a35.861,35.861,0,0,1-60.241-26.3.653.653,0,0,1,1.306,0A34.554,34.554,0,0,0,111.4,105.71a8.2,8.2,0,0,0,.9.947Z" transform="translate(0 -19.363)" fill="#2b572a"/>
      <path id="Path_9713" data-name="Path 9713" d="M217.982,29.216a12.006,12.006,0,0,0,1.623,9.808h0a12.009,12.009,0,0,0,6.311-7.683h0a12.009,12.009,0,0,0-1.623-9.81,12.009,12.009,0,0,0-6.311,7.685Z" transform="translate(-55.088 0)" fill-rule="evenodd" fill="url(#linear-gradient)"/>
      <path id="Path_9714" data-name="Path 9714" d="M229.444,44.423a1.018,1.018,0,1,1-1.017,1.019A1.017,1.017,0,0,1,229.444,44.423Z" transform="translate(-58.702 -7.619)" fill="#457e3b" fill-rule="evenodd"/>
      <path id="Path_9715" data-name="Path 9715" d="M234.174,44.651a.866.866,0,1,1-.866.867A.867.867,0,0,1,234.174,44.651Z" transform="translate(-60.326 -7.695)" fill="#67a643" fill-rule="evenodd"/>
      <path id="Path_9716" data-name="Path 9716" d="M238.186,44.844a.738.738,0,1,1-.737.738A.738.738,0,0,1,238.186,44.844Z" transform="translate(-61.704 -7.759)" fill="#9eca3b" fill-rule="evenodd"/>
      <path id="Path_9717" data-name="Path 9717" d="M210.585,44.423a1.018,1.018,0,1,0,1.018,1.019A1.018,1.018,0,0,0,210.585,44.423Z" transform="translate(-52.424 -7.619)" fill="#ef881c"/>
      <path id="Path_9718" data-name="Path 9718" d="M206.007,44.651a.866.866,0,1,0,.866.867A.866.866,0,0,0,206.007,44.651Z" transform="translate(-50.951 -7.695)" fill="#ef881c"/>
      <path id="Path_9719" data-name="Path 9719" d="M202.123,44.844a.738.738,0,1,0,.737.738A.738.738,0,0,0,202.123,44.844Z" transform="translate(-49.701 -7.759)" fill="#ef881c"/>
      <path id="Path_9720" data-name="Path 9720" d="M128.367,112.628a5.257,5.257,0,0,0-1.21-8.638,5.253,5.253,0,0,0,1.21,8.638Z" transform="translate(-24.414 -27.446)" fill="#99c63c" fill-rule="evenodd"/>
      <path id="Path_9721" data-name="Path 9721" d="M125.426,101.26a6.468,6.468,0,0,1,1.55,11.09l-.276.215-.323-.131a6.5,6.5,0,0,1-2.672-2.025,6.465,6.465,0,0,1-.895-6.384,6.489,6.489,0,0,1,2.017-2.681l.276-.216Zm1.72,2.766a5.256,5.256,0,0,0-1.85-1.5,5.276,5.276,0,0,0-1.362,1.945,5.276,5.276,0,0,0,.725,5.2,5.282,5.282,0,0,0,1.85,1.5,5.266,5.266,0,0,0,.638-7.141Z" transform="translate(-23.392 -26.493)" fill="#2b572a"/>
      <path id="Path_9722" data-name="Path 9722" d="M140.421,100.365a5.253,5.253,0,0,0-1.21-8.638,5.253,5.253,0,0,0-1.692,4.641,5.219,5.219,0,0,0,1.053,2.5A5.307,5.307,0,0,0,140.421,100.365Z" transform="translate(-28.426 -23.364)" fill="#ef881c"/>
      <path id="Path_9723" data-name="Path 9723" d="M137.481,89a6.469,6.469,0,0,1,1.552,11.09l-.277.216-.323-.131a6.473,6.473,0,0,1-3.972-5.1,6.463,6.463,0,0,1,2.42-5.99l.277-.216.323.131Zm1.72,2.767a5.294,5.294,0,0,0-1.849-1.5,5.258,5.258,0,0,0,1.211,8.64,5.309,5.309,0,0,0,1.362-1.945,5.274,5.274,0,0,0-.725-5.2Z" transform="translate(-27.405 -22.412)" fill="#2b572a"/>
      <path id="Path_9724" data-name="Path 9724" d="M150.627,84.915a5.252,5.252,0,0,0-1.211-8.638,5.252,5.252,0,0,0-1.693,4.643,5.241,5.241,0,0,0,2.9,3.995Z" transform="translate(-31.823 -18.222)" fill="#99c63c" fill-rule="evenodd"/>
      <path id="Path_9725" data-name="Path 9725" d="M147.687,73.546a6.477,6.477,0,0,1,3.973,5.1,6.426,6.426,0,0,1-.406,3.31,6.5,6.5,0,0,1-2.017,2.681l-.276.215-.321-.13a6.5,6.5,0,0,1-2.673-2.024,6.471,6.471,0,0,1-.9-6.387,6.5,6.5,0,0,1,2.017-2.68l.278-.216Zm1.721,2.767a5.308,5.308,0,0,0-1.851-1.5,5.308,5.308,0,0,0-1.363,1.947,5.269,5.269,0,0,0,.725,5.194,5.3,5.3,0,0,0,1.849,1.5,5.268,5.268,0,0,0,.64-7.141Z" transform="translate(-30.802 -17.269)" fill="#2b572a"/>
      <path id="Path_9726" data-name="Path 9726" d="M142.354,115.547a5.289,5.289,0,0,0,1.659,1.7,5.271,5.271,0,0,0,5.237.256,5.306,5.306,0,0,0,1.818-1.539,5.258,5.258,0,0,0-8.714-.418Z" transform="translate(-30.053 -30.588)" fill="#99c63c" fill-rule="evenodd"/>
      <path id="Path_9727" data-name="Path 9727" d="M152.569,114.632a6.466,6.466,0,0,1-5.749,2.955,6.417,6.417,0,0,1-3.178-1.012,6.522,6.522,0,0,1-2.257-2.483l-.161-.311.188-.292a6.488,6.488,0,0,1,5.75-2.956,6.472,6.472,0,0,1,5.435,3.5l.161.311-.189.292Zm-3.036,1.178a5.322,5.322,0,0,0,1.815-1.541,5.313,5.313,0,0,0-1.658-1.7,5.259,5.259,0,0,0-7.056,1.284,5.268,5.268,0,0,0,6.9,1.959Z" transform="translate(-29.677 -29.621)" fill="#2b572a"/>
      <path id="Path_9728" data-name="Path 9728" d="M152.213,101.153a5.324,5.324,0,0,0,2.234.814,5.266,5.266,0,0,0,2.689-.382,5.213,5.213,0,0,0,2.14-1.665,5.306,5.306,0,0,0,.969-2.173,5.253,5.253,0,0,0-8.031,3.405Z" transform="translate(-33.335 -25.084)" fill="#ef881c"/>
      <path id="Path_9729" data-name="Path 9729" d="M161.267,95.528A6.537,6.537,0,0,1,160,98.634a6.475,6.475,0,0,1-5.938,2.518,6.523,6.523,0,0,1-3.11-1.256l-.281-.211.043-.344a6.475,6.475,0,0,1,3.9-5.158,6.434,6.434,0,0,1,3.3-.466,6.528,6.528,0,0,1,3.111,1.255l.28.21-.043.346Zm-2.23,2.378a5.245,5.245,0,0,0,.97-2.174,5.254,5.254,0,0,0-4.921-.433,5.209,5.209,0,0,0-2.14,1.665,5.268,5.268,0,0,0-.97,2.173,5.248,5.248,0,0,0,4.922.434,5.207,5.207,0,0,0,2.139-1.664Z" transform="translate(-32.822 -24.01)" fill="#2b572a"/>
    </g>
  </g>
</svg>
