<svg width="291" height="291" viewBox="0 0 291 291" fill="none" xmlns="http://www.w3.org/2000/svg">
<path d="M157.067 140.844L192.921 104.99L77.115 39.9034C69.4399 35.7566 62.2497 35.1746 55.9447 39.7094L157.067 140.844ZM199.032 182.821L236.304 161.857C243.579 157.783 247.568 152.011 247.568 145.609C247.568 139.219 243.579 133.436 236.316 129.362L202.572 110.41L164.585 148.386L199.032 182.821ZM49.7125 48.5242C48.9365 50.9129 48.5 53.5804 48.5 56.5025V234.801C48.5 239.42 49.5185 243.397 51.3615 246.562L149.538 148.374L49.7125 48.5242ZM157.067 155.891L59.4367 253.534C61.304 254.249 63.3167 254.625 65.4386 254.625C69.2216 254.625 73.1622 253.509 77.1756 251.278L189.392 188.265L157.067 155.891Z" fill="white"/>
</svg>
