<svg xmlns="http://www.w3.org/2000/svg" xmlns:xlink="http://www.w3.org/1999/xlink" width="476" height="345" viewBox="0 0 476 345">
  <defs>
    <clipPath id="clip-path">
      <rect id="Rectangle_2570" data-name="Rectangle 2570" width="476" height="345" rx="5" transform="translate(1763 4970)" fill="none" stroke="#727d8a" stroke-width="1"/>
    </clipPath>
    <linearGradient id="linear-gradient" y1="0.5" x2="1" y2="0.5" gradientUnits="objectBoundingBox">
      <stop offset="0.003" stop-color="#bf290d"/>
      <stop offset="0.61" stop-color="#ffaf33"/>
      <stop offset="0.988" stop-color="#ffaf33"/>
    </linearGradient>
  </defs>
  <g id="Mask_Group_195" data-name="Mask Group 195" transform="translate(-1763 -4970)" clip-path="url(#clip-path)">
    <g id="Group_5905" data-name="Group 5905" transform="translate(285.951 5893.219)">
      <g id="Group_5898" data-name="Group 5898" transform="translate(1547.218 -880.762)">
        <path id="Rectangle_2488" data-name="Rectangle 2488" d="M47.874,0H245.346A47.875,47.875,0,0,1,293.22,47.875V202.082a47.874,47.874,0,0,1-47.874,47.874H47.874A47.874,47.874,0,0,1,0,202.082V47.874A47.874,47.874,0,0,1,47.874,0Z" fill="#fff" opacity="0.13"/>
        <path id="Rectangle_2489" data-name="Rectangle 2489" d="M27.736,0H265.484A27.736,27.736,0,0,1,293.22,27.736v0a0,0,0,0,1,0,0H0a0,0,0,0,1,0,0v0A27.736,27.736,0,0,1,27.736,0Z" fill="url(#linear-gradient)"/>
        <g id="Group_5891" data-name="Group 5891" transform="translate(11.858 10.385)">
          <path id="Path_9288" data-name="Path 9288" d="M1594.582-746a3.316,3.316,0,0,1,3.316-3.316,3.316,3.316,0,0,1,3.316,3.316,3.316,3.316,0,0,1-3.316,3.316A3.316,3.316,0,0,1,1594.582-746Z" transform="translate(-1594.582 749.32)" fill="#dae6ff"/>
          <path id="Path_9289" data-name="Path 9289" d="M1650.176-746a3.316,3.316,0,0,1,3.316-3.316,3.316,3.316,0,0,1,3.316,3.316,3.316,3.316,0,0,1-3.316,3.316A3.316,3.316,0,0,1,1650.176-746Z" transform="translate(-1636.258 749.32)" fill="#dae6ff"/>
          <path id="Path_9290" data-name="Path 9290" d="M1705.769-746a3.316,3.316,0,0,1,3.316-3.316A3.316,3.316,0,0,1,1712.4-746a3.316,3.316,0,0,1-3.316,3.316A3.316,3.316,0,0,1,1705.769-746Z" transform="translate(-1677.933 749.32)" fill="#dae6ff"/>
        </g>
        <rect id="Rectangle_2490" data-name="Rectangle 2490" width="83.118" height="83.118" transform="translate(23.237 49.744)" fill="#c8dffd" opacity="0.5"/>
        <path id="Path_9291" data-name="Path 9291" d="M2119.029-586.169h-66.114a3.141,3.141,0,0,1-3.141-3.141h0a3.141,3.141,0,0,1,3.141-3.141h66.114a3.141,3.141,0,0,1,3.141,3.141h0A3.141,3.141,0,0,1,2119.029-586.169Z" transform="translate(-1923.959 642.109)" fill="url(#linear-gradient)"/>
        <path id="Path_9292" data-name="Path 9292" d="M2434.827-603h-66.114a3.141,3.141,0,0,1-3.141-3.141h0a3.141,3.141,0,0,1,3.141-3.141h66.114a3.141,3.141,0,0,1,3.141,3.141h0A3.141,3.141,0,0,1,2434.827-603Z" transform="translate(-2160.697 654.725)" fill="url(#linear-gradient)"/>
        <g id="Group_5892" data-name="Group 5892" transform="translate(125.815 76.049)" opacity="0.3">
          <path id="Path_9293" data-name="Path 9293" d="M2132.116-482.959H2051.81a2.036,2.036,0,0,1-2.036-2.036h0a2.036,2.036,0,0,1,2.036-2.036h80.306a2.036,2.036,0,0,1,2.036,2.036h0A2.036,2.036,0,0,1,2132.116-482.959Z" transform="translate(-2049.774 487.031)" fill="#b8d0fc"/>
          <path id="Path_9294" data-name="Path 9294" d="M2431.052-482.959h-21.2a2.036,2.036,0,0,1-2.036-2.036h0a2.036,2.036,0,0,1,2.036-2.036h21.2a2.036,2.036,0,0,1,2.036,2.036h0A2.036,2.036,0,0,1,2431.052-482.959Z" transform="translate(-2318.181 487.031)" fill="#b8d0fc"/>
          <path id="Path_9295" data-name="Path 9295" d="M2082.11-432.521h-30.3a2.036,2.036,0,0,1-2.036-2.036h0a2.036,2.036,0,0,1,2.036-2.036h30.3a2.036,2.036,0,0,1,2.036,2.036h0A2.036,2.036,0,0,1,2082.11-432.521Z" transform="translate(-2049.774 449.22)" fill="#b8d0fc"/>
          <path id="Path_9296" data-name="Path 9296" d="M2244.553-432.521h-41.52a2.036,2.036,0,0,1-2.036-2.036h0a2.036,2.036,0,0,1,2.036-2.036h41.52a2.036,2.036,0,0,1,2.036,2.036h0A2.036,2.036,0,0,1,2244.553-432.521Z" transform="translate(-2163.139 449.22)" fill="#b8d0fc"/>
          <path id="Path_9297" data-name="Path 9297" d="M2431.052-432.521h-21.2a2.036,2.036,0,0,1-2.036-2.036h0a2.036,2.036,0,0,1,2.036-2.036h21.2a2.036,2.036,0,0,1,2.036,2.036h0A2.036,2.036,0,0,1,2431.052-432.521Z" transform="translate(-2318.181 449.22)" fill="#b8d0fc"/>
          <path id="Path_9298" data-name="Path 9298" d="M2092.924-388.909H2051.81a2.036,2.036,0,0,1-2.036-2.036h0a2.036,2.036,0,0,1,2.036-2.036h41.115a2.036,2.036,0,0,1,2.036,2.036h0A2.036,2.036,0,0,1,2092.924-388.909Z" transform="translate(-2049.774 416.526)" fill="#b8d0fc"/>
          <path id="Path_9299" data-name="Path 9299" d="M2328.292-388.909h-67.243a2.036,2.036,0,0,1-2.036-2.036h0a2.036,2.036,0,0,1,2.036-2.036h67.243a2.036,2.036,0,0,1,2.036,2.036h0A2.036,2.036,0,0,1,2328.292-388.909Z" transform="translate(-2206.63 416.526)" fill="#b8d0fc"/>
        </g>
        <g id="Group_5893" data-name="Group 5893" transform="translate(125.815 116.163)" opacity="0.3">
          <path id="Path_9300" data-name="Path 9300" d="M2132.116-322.727H2051.81a2.036,2.036,0,0,1-2.036-2.036h0a2.036,2.036,0,0,1,2.036-2.036h80.306a2.036,2.036,0,0,1,2.036,2.036h0A2.036,2.036,0,0,1,2132.116-322.727Z" transform="translate(-2049.774 326.799)" fill="#b8d0fc"/>
          <path id="Path_9301" data-name="Path 9301" d="M2431.052-322.727h-21.2a2.036,2.036,0,0,1-2.036-2.036h0a2.036,2.036,0,0,1,2.036-2.036h21.2a2.036,2.036,0,0,1,2.036,2.036h0A2.036,2.036,0,0,1,2431.052-322.727Z" transform="translate(-2318.181 326.799)" fill="#b8d0fc"/>
          <path id="Path_9302" data-name="Path 9302" d="M2082.11-272.289h-30.3a2.036,2.036,0,0,1-2.036-2.036h0a2.036,2.036,0,0,1,2.036-2.036h30.3a2.036,2.036,0,0,1,2.036,2.036h0A2.036,2.036,0,0,1,2082.11-272.289Z" transform="translate(-2049.774 288.988)" fill="#b8d0fc"/>
          <path id="Path_9303" data-name="Path 9303" d="M2244.553-272.289h-41.52a2.036,2.036,0,0,1-2.036-2.036h0a2.036,2.036,0,0,1,2.036-2.036h41.52a2.036,2.036,0,0,1,2.036,2.036h0A2.036,2.036,0,0,1,2244.553-272.289Z" transform="translate(-2163.139 288.988)" fill="#b8d0fc"/>
        </g>
        <g id="Group_5894" data-name="Group 5894" transform="translate(23.237 149.605)">
          <rect id="Rectangle_2491" data-name="Rectangle 2491" width="46.431" height="8.964" fill="#ff912b"/>
          <rect id="Rectangle_2492" data-name="Rectangle 2492" width="46.431" height="8.964" transform="translate(0 8.964)" fill="#fc7600"/>
          <rect id="Rectangle_2493" data-name="Rectangle 2493" width="46.431" height="8.963" transform="translate(0 17.927)" fill="#4b49f2"/>
        </g>
        <g id="Group_5895" data-name="Group 5895" transform="translate(76.396 150.808)">
          <path id="Path_9304" data-name="Path 9304" d="M1879.857-184.541h-25.546a1.936,1.936,0,0,1-1.936-1.936h0a1.935,1.935,0,0,1,1.936-1.935h25.546a1.935,1.935,0,0,1,1.936,1.935h0A1.936,1.936,0,0,1,1879.857-184.541Z" transform="translate(-1852.375 188.412)" fill="#b8d0fc"/>
          <path id="Path_9305" data-name="Path 9305" d="M1871.251-157.287h-16.94a1.936,1.936,0,0,1-1.936-1.935h0a1.935,1.935,0,0,1,1.936-1.936h16.94a1.935,1.935,0,0,1,1.935,1.936h0A1.936,1.936,0,0,1,1871.251-157.287Z" transform="translate(-1852.375 167.981)" fill="#b8d0fc"/>
        </g>
        <g id="Group_5896" data-name="Group 5896" transform="translate(23.237 195.95)">
          <rect id="Rectangle_2494" data-name="Rectangle 2494" width="46.431" height="18.315" transform="translate(0 0)" fill="#ff912b"/>
          <rect id="Rectangle_2495" data-name="Rectangle 2495" width="46.431" height="13.099" transform="translate(0 13.792)" fill="#c23b35"/>
          <path id="Path_9306" data-name="Path 9306" d="M1640.038-8.1,1656.694,5.9l-16.657,12.9Z" transform="translate(-1640.038 8.096)" fill="#4b49f2"/>
        </g>
        <g id="Group_5897" data-name="Group 5897" transform="translate(76.396 197.154)">
          <path id="Path_9307" data-name="Path 9307" d="M1879.857.582h-25.546a1.936,1.936,0,0,1-1.936-1.935h0a1.935,1.935,0,0,1,1.936-1.936h25.546a1.936,1.936,0,0,1,1.936,1.936h0A1.936,1.936,0,0,1,1879.857.582Z" transform="translate(-1852.375 3.289)" fill="#b8d0fc"/>
          <path id="Path_9308" data-name="Path 9308" d="M1871.251,27.836h-16.94a1.935,1.935,0,0,1-1.936-1.935h0a1.936,1.936,0,0,1,1.936-1.936h16.94a1.936,1.936,0,0,1,1.935,1.936h0A1.935,1.935,0,0,1,1871.251,27.836Z" transform="translate(-1852.375 -17.142)" fill="#b8d0fc"/>
        </g>
      </g>
      <g id="Group_5900" data-name="Group 5900" transform="translate(1754.61 -910.805)">
        <path id="Path_9309" data-name="Path 9309" d="M2532.219-780.085s1.208,14.412-2.075,14.194-9.767-6.563-22.849-5.531-29.09,3.894-38.767-13.228S2480.9-806.7,2480.9-806.7l51.315,26.617Z" transform="translate(-2443.43 832.764)" fill="#1e3865"/>
        <path id="Path_9310" data-name="Path 9310" d="M2436.6-859.181l65.923,5.421,1.37-2.933-63.2-46.653-63.843-7.458-1.227,2.624,60.978,49Z" transform="translate(-2375.626 910.805)" fill="#25468f"/>
        <g id="Group_5899" data-name="Group 5899" transform="translate(99.066 99.417)">
          <path id="Path_9311" data-name="Path 9311" d="M2783.385-511.839a2.558,2.558,0,0,0-3.161-1.754,2.556,2.556,0,0,0-1.753,3.161,2.556,2.556,0,0,0,3.16,1.754,2.558,2.558,0,0,0,1.754-3.161Z" transform="translate(-2776.611 513.692)" fill="#ff912b"/>
          <path id="Path_9312" data-name="Path 9312" d="M2775.914-503.459c2.645-.206,3.262,23.853,3.262,23.853a5.854,5.854,0,0,1-2.571.62c-.848-.191-1.281-3.44-1.281-3.44l-.082,3.406s-2.9.1-3.906-.6c0,0,.394-23.509,4.576-23.835Z" transform="translate(-2771.338 506.022)" fill="#ff912b"/>
        </g>
        <path id="Path_9313" data-name="Path 9313" d="M2683.8-735.723l-.478-52.563-.341-.255-34.434-25.473-1.237,1.674,34.091,25.218.77,51.307Z" transform="translate(-2579.292 838.245)" fill="#ff912b"/>
      </g>
      <g id="Group_5904" data-name="Group 5904" transform="translate(1722.088 -755.755)">
        <path id="Path_9314" data-name="Path 9314" d="M2532.478,159.865c4.6,8.132,10.427,11.3,10.427,11.3l24.35.172S2528.971,153.661,2532.478,159.865Z" transform="translate(-2460.518 -45.883)" fill="#1e3865"/>
        <g id="Group_5901" data-name="Group 5901" transform="translate(0 0)">
          <path id="Path_9315" data-name="Path 9315" d="M2545.691,353.922a2.251,2.251,0,0,1,.384,2.41.017.017,0,0,1-.006.012c-.592,1.6-2.523,3.379-4.765,5.153-.286.228-.541.435-.763.627-.059.05-.117.1-.171.152l-.132.117c-2.092,1.9-1.313,2.346-5.074,6.207-4.289,4.4-7.22,4.459-8.052,4.049-.7-.349.747-2.688,2.354-5.318.078-.127.154-.255.234-.383.214-.35.427-.7.639-1.056,1.884-3.165,1.416-4.66,1.009-9.392-.332-3.846-5.828-21.514-5.828-21.514l8.169-1.348s2.358,14.055,5.05,16.236c1.439,1.163,3.06,1.188,4.445,2.053.1.06.194.121.288.185A10.706,10.706,0,0,1,2545.691,353.922Z" transform="translate(-2455.473 -177.142)" fill="#ffae73"/>
          <path id="Path_9316" data-name="Path 9316" d="M2549.915,408.685a2.251,2.251,0,0,1,.384,2.41.019.019,0,0,1-.006.012c-.722,1.6-2.605,3.368-4.772,5.137-.283.232-.533.445-.755.644-.059.05-.117.1-.172.152s-.089.08-.132.117c-2.092,1.9-1.313,2.346-5.074,6.207-4.289,4.4-7.22,4.459-8.052,4.049-.7-.349.747-2.688,2.354-5.318a18.142,18.142,0,0,0,7.628-5.538c2.587-3.253,4.326-7.445,6.089-9.867.1.06.194.121.288.185A10.706,10.706,0,0,1,2549.915,408.685Z" transform="translate(-2459.696 -231.905)" fill="#1e3865"/>
          <path id="Path_9317" data-name="Path 9317" d="M2270.188,339.766c-.521,2.515-4.108,2.07-8.112,1.061s-3.059.163-8.762-.509-7.418-2.813-7.586-3.663c-.15-.754,2.672-1,5.7-1.327.381-.04.763-.084,1.146-.129,3.418-.4,5.936-2.591,9.051-4.379,2.951-1.694,7.386-8.649,7.386-8.649l7.823.675s-4.152,6.21-5.76,8.912a9.459,9.459,0,0,0-.806,5.329A10.044,10.044,0,0,1,2270.188,339.766Z" transform="translate(-2245.722 -168.546)" fill="#ffae73"/>
          <path id="Path_9318" data-name="Path 9318" d="M2262.076,380.222c-4-1.008-3.059.163-8.762-.509s-7.418-2.813-7.586-3.663c-.15-.754,2.672-1,5.7-1.327l.028.058a16.094,16.094,0,0,0,8.157,2.6c3.872.121,7.982-.959,10.656-.9a10.044,10.044,0,0,1-.079,2.677C2269.667,381.676,2266.08,381.231,2262.076,380.222Z" transform="translate(-2245.722 -207.941)" fill="#1e3865"/>
          <path id="Path_9319" data-name="Path 9319" d="M2464.693,156l7.179,19.743,9.373,25.779a15.474,15.474,0,0,0,5.079-.428,22,22,0,0,0,4.926-2.355s-2.458-27.625-7.3-43.508c-1.24-4.076-2.638-7.377-4.193-9.24C2472.153,136.875,2464.693,156,2464.693,156Z" transform="translate(-2409.874 -34.627)" fill="#1e3865"/>
          <path id="Path_9320" data-name="Path 9320" d="M2364.277,58.239c4.805-1.513,18.465.569,32.182,3.355l2.909-4.723,29.685-2.108s9.637,21.78,4.18,35.576c-.8,2.028-2.758,2.872-5.427,2.9l0,0s-17.707.307-23.441.267c-14.755-.1-31.154-10.363-33.282-10.8-3.483-.722-4.927,6.243-8.466,13.542s-33.013,32.2-33.013,32.2-4.5.013-6.358-.7a6.265,6.265,0,0,1-2.72-1.744S2353.44,61.65,2364.277,58.239Z" transform="translate(-2301.796 31.917)" fill="#25468f"/>
          <path id="Path_9321" data-name="Path 9321" d="M2614.507-243.543c10.524,5.891,31.872,18.1,31.984,18.025,0,0,7.856,3.024,12.347.087,7.484-4.894,11.572-18.18-1.969-29.733-6.754-5.762-11.57-7.187-12.24-16.317-.363-4.953-7.014-21.337-18.268-19.906a17.131,17.131,0,0,1-2.835.166,10.526,10.526,0,0,0-5.715,1.433C2611.422-286.043,2598.685-245.906,2614.507-243.543Z" transform="translate(-2516.473 291.474)" fill="#1e3865"/>
          <path id="Path_9322" data-name="Path 9322" d="M2669.052-169.079c-.047.03,5.186,1.857,8.7.329,3.309-1.435,5.847-6.845,5.8-6.848-1.5-.08-3.139-1.4-4.346-10.022l-.641.225-10.772,3.79s.754,3.453,1.235,6.739C2669.432-172.106,2669.641-169.464,2669.052-169.079Z" transform="translate(-2562.127 212.12)" fill="#ffae73"/>
          <path id="Path_9323" data-name="Path 9323" d="M2667.793-180.931s.459,2.42,1.1,5.879c6.18-1.068,8.783-6.339,9.676-9.669Z" transform="translate(-2562.127 211.447)" fill="#f9924f"/>
          <path id="Path_9324" data-name="Path 9324" d="M2639.076-233.284s14.715-1.869,13.41-11.015-.285-15.547-9.735-14.74-10.774,4.557-11.081,7.716S2635.214-233.033,2639.076-233.284Z" transform="translate(-2535.035 267.211)" fill="#ffae73"/>
          <path id="Path_9325" data-name="Path 9325" d="M2634-258.781s9.354,8.176,15.75,8.875,8.835-1.339,8.835-1.339a25,25,0,0,1-5.986-8.231,4.5,4.5,0,0,0-3.692-2.68C2644.341-262.581,2635.677-262.822,2634-258.781Z" transform="translate(-2536.796 269.663)" fill="#1e3865"/>
          <path id="Path_9326" data-name="Path 9326" d="M2634.67-256.079s-3.169,3.022-4.177,5.273c-.972,2.172-1.3,7.381-.549,9.456,0,0-4.838-9.573-2.028-14.187C2630.9-260.43,2634.67-256.079,2634.67-256.079Z" transform="translate(-2531.576 266.276)" fill="#1e3865"/>
          <path id="Path_9327" data-name="Path 9327" d="M2622.76-118.559c.235,29.762-.044,23.541,3.191,26.388.78.685,2.982,1.106,5.883,1.318,9.121.67,25.172-.72,25.794-2.4,2.146-5.82.673-7.643,2.492-16.564.19-.949.424-1.976.7-3.094,1.508-6.125,2.948-8.2-2.177-18.1-4.648-8.962-9.49-16.244-9.932-15.985-12.481,7.29-13.439,1.082-13.439,1.082S2622.644-133.076,2622.76-118.559Z" transform="translate(-2528.368 183.169)" fill="#fddbba"/>
          <path id="Path_9328" data-name="Path 9328" d="M2493.368,210.795l9.373,25.779a15.473,15.473,0,0,0,5.079-.428,22,22,0,0,0,4.926-2.355s-2.458-27.625-7.3-43.508Z" transform="translate(-2431.37 -69.675)" fill="#25468f"/>
          <path id="Path_9329" data-name="Path 9329" d="M2598.014-142.661s-12.8,2.078-14.344,7.573-10.606,37.8-10.606,37.8,6.493,1.214,9.518-1.768,10.647-27.79,10.647-27.79Z" transform="translate(-2491.114 179.916)" fill="#fddbba"/>
          <path id="Path_9330" data-name="Path 9330" d="M2659.007-16.718c9.121.67,25.173-.72,25.794-2.4,2.146-5.82.673-7.643,2.492-16.564l-4.314-12.425s.631,13.806-3.465,17.407-16.713,6.89-18.713,9.909A11.11,11.11,0,0,0,2659.007-16.718Z" transform="translate(-2555.541 109.035)" fill="#f8caa4"/>
          <path id="Path_9331" data-name="Path 9331" d="M2653.127,50.021s-8.989-2.068-10.447-1.279-5.029,3.673-5.48,4.682,3.239-.746,4.438-1.058c.776-.2,2.811.521,3.818.864,4.239,1.447,6.847.736,6.847.736Z" transform="translate(-2539.165 36.566)" fill="#ffae73"/>
          <path id="Path_9332" data-name="Path 9332" d="M2702.913-147s12.083.83,16.226,6.7c5.833,8.258,17.271,43.353,10.541,47.976-7.579,5.206-34.334,1.133-34.334,1.133s-.862-4.172.393-6.178,21.429-5.119,22.366-6.043-11.5-18.218-11.479-21.009S2702.913-147,2702.913-147Z" transform="translate(-2582.565 183.17)" fill="#fddbba"/>
          <path id="Path_9333" data-name="Path 9333" d="M2646.784,59.275a17.406,17.406,0,0,1-2.524,2.706,1.842,1.842,0,0,1-1.019.211l1.287-2.279Z" transform="translate(-2543.722 28.535)" fill="#ffae73"/>
          <path id="Path_9334" data-name="Path 9334" d="M2642.727,49.279l-5.5,2.624a.977.977,0,0,0,.906.357,13.072,13.072,0,0,0,2.383-.637Z" transform="translate(-2539.212 36.028)" fill="#ffae73"/>
        </g>
        <g id="Group_5903" data-name="Group 5903" transform="translate(45.509 61.593)">
          <g id="Group_5902" data-name="Group 5902" transform="translate(0 0)">
            <path id="Path_9335" data-name="Path 9335" d="M2483.706-12.6l-43.382-.306L2427.5-45.445l43.315.306Z" transform="translate(-2427.503 45.445)" fill="#ff912b"/>
            <path id="Path_9336" data-name="Path 9336" d="M2476.72,79.483l57.285.4L2534,81.151l-56.777-.4Z" transform="translate(-2464.398 -48.207)" fill="#fc7600"/>
          </g>
          <path id="Path_9337" data-name="Path 9337" d="M2522.676,13.89a1.5,1.5,0,0,1,1.488-2.055,2.959,2.959,0,0,1,2.643,2.084,1.5,1.5,0,0,1-1.487,2.055A2.96,2.96,0,0,1,2522.676,13.89Z" transform="translate(-2498.79 2.505)" fill="#fff"/>
        </g>
      </g>
    </g>
  </g>
</svg>
