<svg xmlns="http://www.w3.org/2000/svg" width="51.525" height="21.299" viewBox="0 0 51.525 21.299">
  <g id="Group_6483" data-name="Group 6483" transform="translate(-1537.35 -818.675)">
    <g id="Group_3023" data-name="Group 3023" transform="translate(1537.35 818.674)">
      <path id="Path_4799" data-name="Path 4799" d="M379.8,190.922a55.07,55.07,0,0,1-6.343.491,65.823,65.823,0,0,1-16.586-1.519,21.874,21.874,0,0,0-2.933-.721c.207.652,1.453,1.611,2.149,2.062,3.576,2.26,6.6,2.12,10.851,2.3,2.054.1,9.82-.128,11.844-.382a31.547,31.547,0,0,1,3.933-.16c-.054.126.186.106-.487.169a3.519,3.519,0,0,0-.576.036c-2.793.344-5.493.725-8.288,1.1a38.962,38.962,0,0,1-10.079.532l-1.1.042a10.083,10.083,0,0,0,2.091,1.289,11.481,11.481,0,0,0,2.541.895c2.272.528,3.882-.1,5.952-.318,1.974-.224,3.712-.524,5.639-.782a56,56,0,0,1,5.781-.743,1.986,1.986,0,0,1,.761.1c-.6.42-5.256.769-6.413.937.064.645,1.337,1.06,1.91,1.088a15.756,15.756,0,0,0,2.5-.23c1.589-.179,3.527-.661,5.186-.323,3.75.665,4.483,4.261,5.463,5.752.132.231.042.13.229.2a15.245,15.245,0,0,0-1.006-6.817c-.875-1.679-2.544-2.787-4.212-3.927a16.461,16.461,0,0,0-5.62-2.553,56.052,56.052,0,0,0-7.769-.7,92.66,92.66,0,0,1-14.59-2.191,20.573,20.573,0,0,1-6.019-2.219c-.839-.458-1.773-.953-2.658-1.445a23.132,23.132,0,0,0-2.658-1.445,7.1,7.1,0,0,0,1.66,3.257,10.608,10.608,0,0,0,2.865,2.1c5.553,2.935,15.027,4.008,21.494,3.94a18.628,18.628,0,0,1,4.019.037l.379.083c.094.037.046.034.092.069Z" transform="translate(-349.286 -181.439)" fill="#515862" fill-rule="evenodd"/>
      <path id="Path_4800" data-name="Path 4800" d="M492.113,194.972c.026.454.967.953,1.344,1.133.708.326,1.469.557,1.659.631.283.143.1-.028.183.2a9.777,9.777,0,0,1-2-.519,2.478,2.478,0,0,0-1.977-.032,23.041,23.041,0,0,0-3.044,1.048,2.121,2.121,0,0,1-.2.087c-.2.119-.1,0-.154.186.093.069,0,.033.14.1l2.709.877a17.139,17.139,0,0,1,4.742,2.723,6.971,6.971,0,0,1,.972.856c.183.2.684.81,1.02.858.67-.873,1.55-5.034,6.152-5.359,1.21-.07,1.541.076,1.276-.423a1.806,1.806,0,0,0-1.065-.925c-.616-.224-.324-.275-.916-1.015-1.816-2.353-4.806-1.432-7.491-.82a13.276,13.276,0,0,1-1.559.279,16.64,16.64,0,0,1-1.791.106Zm9.8.4c-.446-.236-.874-.337-.932-.218s.268.407.681.672.862.347.932.218c.049-.091-.094-.2-.332-.384a2.772,2.772,0,0,0-.348-.288Z" transform="translate(-453.495 -190.793)" fill="#515862" fill-rule="evenodd"/>
    </g>
  </g>
</svg>
