<svg xmlns="http://www.w3.org/2000/svg" width="37.542" height="28.413" viewBox="0 0 37.542 28.413">
  <g id="Group_6480" data-name="Group 6480" transform="translate(-614.241 -804.793)">
    <g id="Group_3014" data-name="Group 3014" transform="translate(614.241 804.792)">
      <path id="Path_4754" data-name="Path 4754" d="M68.717,98.589a10.607,10.607,0,0,1,3.493,6.3A14.879,14.879,0,0,1,60.992,94.17,18.493,18.493,0,0,1,68.717,98.589Z" transform="translate(-58.065 -78.952)" fill="#515862" fill-rule="evenodd"/>
      <path id="Path_4755" data-name="Path 4755" d="M69.795,104.13a14.892,14.892,0,0,1-8.68-9.767c0-.057-.009-.114-.013-.173.128.026.268.061.418.1a19.273,19.273,0,0,1,6.295,5.642A12.358,12.358,0,0,1,69.795,104.13Z" transform="translate(-58.139 -78.966)" fill="#515862" fill-rule="evenodd"/>
      <path id="Path_4756" data-name="Path 4756" d="M77.375,104.767a11.129,11.129,0,0,0-3.71-6.889,20.729,20.729,0,0,0-5.916-3.865,25.414,25.414,0,0,1,17.09,10.108,14.828,14.828,0,0,1-4.974.852,15.02,15.02,0,0,1-2.49-.207Z" transform="translate(-62.608 -78.847)" fill="#515862" fill-rule="evenodd"/>
      <path id="Path_4757" data-name="Path 4757" d="M78.122,104.867a11.129,11.129,0,0,0-3.71-6.889,20.5,20.5,0,0,0-4.855-3.37q-.355-.237-.7-.446c.276.039.569.087.875.142A25.365,25.365,0,0,1,83.476,104.8a15.056,15.056,0,0,1-5.354.069Z" transform="translate(-63.354 -78.947)" fill="#515862" fill-rule="evenodd"/>
      <path id="Path_4758" data-name="Path 4758" d="M63.512,48.286a.321.321,0,0,0-.454-.454A15.5,15.5,0,1,0,89.3,61.408c0-.028.025-.154.03-.181a2.539,2.539,0,0,0-.64-.094c0,.01,0,.055-.006.065a14.86,14.86,0,1,1-25.17-12.911Z" transform="translate(-56.402 -47.738)" fill="#515862"/>
      <path id="Path_4759" data-name="Path 4759" d="M60.669,91.575c.034,0,11.688-.649,20.007,10.6l.514-.382C72.666,90.27,60.676,90.935,60.642,90.937Z" transform="translate(-57.83 -76.774)" fill="#515862"/>
      <path id="Path_4760" data-name="Path 4760" d="M60.642,91.591c1.305.057,5.2,1.656,8.162,4.477a10.428,10.428,0,0,1,3.527,6.648l.639-.045A11.053,11.053,0,0,0,69.246,95.6c-3.075-2.927-7.184-4.591-8.577-4.652l-.027.639Z" transform="translate(-57.83 -76.789)" fill="#515862"/>
      <path id="Path_4761" data-name="Path 4761" d="M81.653,92.945A17.616,17.616,0,0,1,52.061,80.026a.321.321,0,0,1,.642,0A16.974,16.974,0,0,0,81.211,92.48a4.031,4.031,0,0,0,.442.465Z" transform="translate(-52.061 -69.229)" fill="#515862"/>
      <path id="Path_4762" data-name="Path 4762" d="M126.863,108.233a2.582,2.582,0,0,0-.594-4.243,2.581,2.581,0,0,0,.594,4.243Z" transform="translate(-101.372 -85.554)" fill="#515862" fill-rule="evenodd"/>
      <path id="Path_4763" data-name="Path 4763" d="M123.857,101.193a3.177,3.177,0,0,1,.762,5.448l-.136.106-.159-.064a3.19,3.19,0,0,1-1.313-.995,3.176,3.176,0,0,1,.551-4.453l.136-.106Zm.845,1.359a2.582,2.582,0,0,0-.909-.736,2.592,2.592,0,0,0-.669.956,2.592,2.592,0,0,0,.356,2.552,2.6,2.6,0,0,0,.909.736,2.587,2.587,0,0,0,.313-3.508Z" transform="translate(-99.309 -83.631)" fill="#515862"/>
      <path id="Path_4764" data-name="Path 4764" d="M138.918,95.97a2.58,2.58,0,0,0-.594-4.243,2.58,2.58,0,0,0-.831,2.28,2.563,2.563,0,0,0,.517,1.228A2.607,2.607,0,0,0,138.918,95.97Z" transform="translate(-109.477 -77.31)" fill="#515862"/>
      <path id="Path_4765" data-name="Path 4765" d="M135.912,88.931a3.178,3.178,0,0,1,.762,5.447l-.136.106-.159-.064a3.18,3.18,0,0,1-1.951-2.505,3.175,3.175,0,0,1,1.189-2.942l.136-.106.159.065Zm.845,1.359a2.6,2.6,0,0,0-.908-.737,2.584,2.584,0,0,0-.832,2.28,2.564,2.564,0,0,0,.518,1.227,2.591,2.591,0,0,0,.909.737,2.608,2.608,0,0,0,.669-.955,2.59,2.59,0,0,0-.356-2.552Z" transform="translate(-107.414 -75.387)" fill="#515862"/>
      <path id="Path_4766" data-name="Path 4766" d="M149.124,80.52a2.58,2.58,0,0,0-.595-4.243,2.58,2.58,0,0,0-.831,2.281,2.574,2.574,0,0,0,1.426,1.962Z" transform="translate(-116.338 -66.923)" fill="#515862" fill-rule="evenodd"/>
      <path id="Path_4767" data-name="Path 4767" d="M146.118,73.479a3.182,3.182,0,0,1,1.952,2.505,3.156,3.156,0,0,1-.2,1.626,3.192,3.192,0,0,1-.991,1.317l-.136.106-.158-.064a3.2,3.2,0,0,1-1.313-.994,3.179,3.179,0,0,1-.44-3.137,3.2,3.2,0,0,1,.991-1.316l.136-.106Zm.845,1.359a2.607,2.607,0,0,0-.909-.737,2.608,2.608,0,0,0-.67.957,2.588,2.588,0,0,0,.356,2.551,2.6,2.6,0,0,0,.908.736,2.588,2.588,0,0,0,.314-3.508Z" transform="translate(-114.274 -64.999)" fill="#515862"/>
      <path id="Path_4768" data-name="Path 4768" d="M142.354,114.47a2.6,2.6,0,0,0,.815.836,2.589,2.589,0,0,0,2.573.126,2.606,2.606,0,0,0,.893-.756,2.583,2.583,0,0,0-4.28-.205Z" transform="translate(-112.763 -91.901)" fill="#515862" fill-rule="evenodd"/>
      <path id="Path_4769" data-name="Path 4769" d="M146.8,112.543a3.176,3.176,0,0,1-2.824,1.451,3.152,3.152,0,0,1-1.561-.5,3.2,3.2,0,0,1-1.109-1.219l-.079-.153.092-.144a3.187,3.187,0,0,1,2.825-1.452,3.179,3.179,0,0,1,2.67,1.717l.079.153-.093.144Zm-1.491.579a2.614,2.614,0,0,0,.892-.757,2.61,2.61,0,0,0-.814-.836,2.583,2.583,0,0,0-3.466.631,2.588,2.588,0,0,0,3.389.962Z" transform="translate(-112.003 -89.948)" fill="#515862"/>
      <path id="Path_4770" data-name="Path 4770" d="M152.213,98.987a2.616,2.616,0,0,0,1.1.4,2.582,2.582,0,0,0,2.848-2.073,2.58,2.58,0,0,0-3.945,1.673Z" transform="translate(-119.391 -80.784)" fill="#515862"/>
      <path id="Path_4771" data-name="Path 4771" d="M155.878,94.582a3.211,3.211,0,0,1-.621,1.526,3.181,3.181,0,0,1-2.917,1.237,3.2,3.2,0,0,1-1.528-.617l-.138-.1.021-.169a3.181,3.181,0,0,1,1.915-2.534,3.161,3.161,0,0,1,1.623-.229,3.207,3.207,0,0,1,1.528.616l.138.1-.021.17Zm-1.1,1.168a2.577,2.577,0,0,0,.476-1.068,2.581,2.581,0,0,0-2.417-.213,2.559,2.559,0,0,0-1.051.818,2.588,2.588,0,0,0-.476,1.067,2.578,2.578,0,0,0,2.418.213,2.558,2.558,0,0,0,1.051-.817Z" transform="translate(-118.356 -78.615)" fill="#515862"/>
    </g>
  </g>
</svg>
