<svg xmlns="http://www.w3.org/2000/svg" width="26.179" height="23.894" viewBox="0 0 26.179 23.894">
  <g id="Group_6481" data-name="Group 6481" transform="translate(-424.219 -816.08)">
    <g id="Group_3013" data-name="Group 3013" transform="translate(424.219 816.08)">
      <path id="Path_4747" data-name="Path 4747" d="M320.3,179.4a5.808,5.808,0,0,0,2.861.754c2.1.188,10.5.188,12.181-.188a7.9,7.9,0,0,0,6.3-6.1c.635-2.692.4-8.365.029-11.215a8.192,8.192,0,0,0-4.269-5.288l-5.058,5.2s-.9,1.231.732,1.631c1.087.017,4.331.142,5.013.864.291.307.143,1.26-.607,1.19a6.033,6.033,0,0,0-.935-.025c-.491.014.724.887-.153,1.4.063,8.1.546,7.083-3.854,6.993l-4.953-.024c-.151.947-1.147.288-1.38.791-.6,1.305-1.158.741-1.618,1.127a1.505,1.505,0,0,1-1.079.416c-.267-.016-.661-.35-.757-.243Z" transform="translate(-315.864 -156.386)" fill="#515862" fill-rule="evenodd"/>
      <path id="Path_4748" data-name="Path 4748" d="M311.253,154.254a7.788,7.788,0,0,0-6.161,6.192c-.42,1.97-.42,10.038.14,11.726.36,1.506,2.237,4.129,3.584,4.464.194-.51,3.259-3.7,3.9-3.656.27.017.258-.054.258-.054l.615-2.862c.167-.566,1.115-.6,1.115-.6v-.849a1.269,1.269,0,0,1,.216-.882c.583-.832,1.581-.066,1.581-.066.815-.616,1.2.566,1.2.566l.349,1.265s2.6-1.082,3.145-1.348a5.381,5.381,0,0,1,1.115-.383.9.9,0,0,0,.874-.549c.05-.616.491-.432.491-.432.949,0,.732-.6.632-.915s.1-.532.682-.7.449-.815.2-1.132.133-.466.233-.433.466-.05,1.032-.05.566-.516.333-.849-1.731-.466-1.731-.466a16.847,16.847,0,0,0-2.43-.133c-1.231.033-1.548-.366-1.548-.366-.915-.549-.316-1.764-.316-1.764-.72-.088-1.285.545-1.818,1.011a8.459,8.459,0,0,0-1.232,2.063,6.959,6.959,0,0,1-2.13,2.762l-1.966,1.6c-.452.368-.508.485-.432,1.061.167,1.076-.227,2.361-1.3,2.314-.7-.3-.7-1.514-.7-1.514l-.791.633c0-.394.014-.856.014-1.4v-5.629c0-2.345-.42-3.283,2.24-3.283l8.278.035,4.728-4.99a8.193,8.193,0,0,0-3.068-.591,75.686,75.686,0,0,0-11.339.2Z" transform="translate(-304.793 -153.937)" fill="#515862" fill-rule="evenodd"/>
      <path id="Path_4749" data-name="Path 4749" d="M331.167,193.831l-2.479.749a3.359,3.359,0,0,0-1,.616,4.471,4.471,0,0,1-.266.4s-.416.433-.533.582-.483.416-.266.815a8.712,8.712,0,0,1,.466,1.281s.1.816.666.616c.718-.253.909-1.549.716-2.13-.1-.3-.167-.383.017-.516s1.265-1.1,1.265-1.1l1.5-1.331-.083.017Z" transform="translate(-320.327 -182.399)" fill="#515862" fill-rule="evenodd"/>
      <path id="Path_4750" data-name="Path 4750" d="M347.212,204.825l1.535-.886a2.623,2.623,0,0,1-.566,1.273,5.59,5.59,0,0,1-1.148.832c-.067.025-.774.374-.757.017a21.164,21.164,0,0,0-.2-2.421s-.137-.874.183-.957.474.374.508.457.341,1.265.341,1.265l.1.42Z" transform="translate(-334.239 -188.723)" fill="#515862" fill-rule="evenodd"/>
      <path id="Path_4751" data-name="Path 4751" d="M341.47,201.836c.35.266.408,1.023.408,1.023l.224,1.831.05,1.182a.566.566,0,0,1-.483.649c-.566.1-.649-.3-.7-.541s-.066-1.822-.066-1.822l-.075-1.356C340.833,202.5,340.881,201.388,341.47,201.836Z" transform="translate(-330.514 -188.051)" fill="#515862" fill-rule="evenodd"/>
      <path id="Path_4752" data-name="Path 4752" d="M334.843,210.494a1.007,1.007,0,0,1,.466-.716s.566-.366.649.075l-.05,2.438s-.017,1.082-.582,1.148c0,0-.974.191-.982-.449A9.12,9.12,0,0,1,334.843,210.494Z" transform="translate(-325.885 -193.694)" fill="#515862" fill-rule="evenodd"/>
      <path id="Path_4753" data-name="Path 4753" d="M329.773,221.868s.387-.649.8-.516a.657.657,0,0,1,.441.624c-.012.05-.05.421-.732.4S329.711,222,329.773,221.868Z" transform="translate(-322.589 -202.043)" fill="#515862" fill-rule="evenodd"/>
    </g>
  </g>
</svg>
