<svg xmlns="http://www.w3.org/2000/svg" xmlns:xlink="http://www.w3.org/1999/xlink" width="32" height="32" viewBox="0 0 32 32">
  <defs>
    <clipPath id="clip-path">
      <rect id="Rectangle_2607" data-name="Rectangle 2607" width="32" height="32" transform="translate(-6750.386 -22201)" fill="none" stroke="#707070" stroke-width="1"/>
    </clipPath>
    <clipPath id="clip-path-2">
      <rect id="Rectangle_2606" data-name="Rectangle 2606" width="30" height="30" transform="translate(-0.386 0.209)" fill="#515862" stroke="#707070" stroke-width="1"/>
    </clipPath>
    <clipPath id="clip-path-3">
      <rect id="Rectangle_2605" data-name="Rectangle 2605" width="19" height="32" transform="translate(0.081 -0.211)" fill="#515862" stroke="#707070" stroke-width="1"/>
    </clipPath>
  </defs>
  <g id="Mask_Group_223" data-name="Mask Group 223" transform="translate(6750.386 22201)" clip-path="url(#clip-path)">
    <g id="Mask_Group_222" data-name="Mask Group 222" transform="translate(-6750 -22200.209)" clip-path="url(#clip-path-2)">
      <g id="Mask_Group_221" data-name="Mask Group 221" transform="translate(5.532 -1.581)" clip-path="url(#clip-path-3)">
        <g id="Group_6463" data-name="Group 6463" transform="translate(-55.325 2.943)">
          <path id="Path_4785" data-name="Path 4785" d="M87.784-83.6c-.084,0-.17,0-.257,0a4.446,4.446,0,0,1-1.574-.312,3.03,3.03,0,0,1-1.132-.811c-1.354-1.56-1.13-4.492-.76-7.931a10.785,10.785,0,0,0-3.423,1.427c-.647.385-1.308.791-2.009,1.221a56.8,56.8,0,0,1-9.045,4.806c-2.267.879-5.859,1.309-10.385,1.242-2.159-.032-4.475-.175-6.883-.428-2.427-.254-4.9-.613-7.344-1.067a76.221,76.221,0,0,1-14.03-3.9,37.818,37.818,0,0,1-5.67-2.773,17.744,17.744,0,0,1-4.1-3.307l.649-.569a16.9,16.9,0,0,0,3.9,3.14,36.959,36.959,0,0,0,5.539,2.708,75.349,75.349,0,0,0,13.868,3.856c2.424.45,4.872.805,7.276,1.057,2.383.25,4.673.392,6.806.423a45.513,45.513,0,0,0,5.806-.247,17.692,17.692,0,0,0,4.255-.937,56.134,56.134,0,0,0,8.905-4.737c.7-.432,1.367-.84,2.019-1.228a11.175,11.175,0,0,1,3.962-1.577,55.68,55.68,0,0,0,.417-5.635l.863.006a54.865,54.865,0,0,1-.4,5.555q.252,0,.5.014A7.543,7.543,0,0,1,89.98-91.48,6.106,6.106,0,0,1,91.745-88.8a4.451,4.451,0,0,1,.006,2.979C91.42-84.984,90.468-83.6,87.784-83.6Zm-2.844-9.158a36.17,36.17,0,0,0-.3,4.377,4.78,4.78,0,0,0,.83,3.089,2.71,2.71,0,0,0,2.082.826,4.462,4.462,0,0,0,2.317-.453,2.35,2.35,0,0,0,1.076-1.216,3.593,3.593,0,0,0-.023-2.4,5.231,5.231,0,0,0-1.511-2.293A9.365,9.365,0,0,0,87.436-92.2a5.184,5.184,0,0,0-1.964-.552A5.088,5.088,0,0,0,84.939-92.762Z" transform="translate(-18.907 110.914)" fill="#515862"/>
          <g id="Group_6460" data-name="Group 6460" transform="translate(59.68 0)">
            <path id="Path_16731" data-name="Path 16731" d="M209.494-98.5h0l.039-.017Z" transform="translate(-199.193 110.485)" fill="#515862"/>
            <path id="Path_16732" data-name="Path 16732" d="M210.111-123.616a12.1,12.1,0,0,0,1.235-5.164v-.531a1.671,1.671,0,0,0-1.668-1.668h-.72v.449h.72a1.221,1.221,0,0,1,1.22,1.22v.531a11.076,11.076,0,0,1-.293,2.439,11.46,11.46,0,0,1-.894,2.524l.4.2Z" transform="translate(-198.85 131.273)" fill="#515862"/>
            <path id="Path_16733" data-name="Path 16733" d="M182.082-123.616l.4-.2a11.456,11.456,0,0,1-.894-2.524,11.073,11.073,0,0,1-.293-2.439v-.531a1.221,1.221,0,0,1,1.219-1.22h.72v-.449h-.72a1.671,1.671,0,0,0-1.668,1.668v.531a12.109,12.109,0,0,0,1.235,5.164Z" transform="translate(-180.847 131.273)" fill="#515862"/>
            <path id="Path_16734" data-name="Path 16734" d="M188.773-107.657a5.031,5.031,0,0,0,3.187-1.128,7.759,7.759,0,0,0,2.066-2.654.494.494,0,0,0-.22-.662.494.494,0,0,0-.663.22,6.786,6.786,0,0,1-1.8,2.322,4.067,4.067,0,0,1-2.575.915,4.067,4.067,0,0,1-2.575-.915,6.79,6.79,0,0,1-1.8-2.322.493.493,0,0,0-.662-.22.493.493,0,0,0-.22.662,7.753,7.753,0,0,0,2.066,2.654A5.031,5.031,0,0,0,188.773-107.657Z" transform="translate(-182.525 119.217)" fill="#515862"/>
            <path id="Path_16735" data-name="Path 16735" d="M205.663-131.275a.521.521,0,0,0,.521.521.52.52,0,0,0,.4-.184h.272a.337.337,0,0,0,.337-.337.336.336,0,0,0-.1-.238.337.337,0,0,0-.238-.1h-.272a.52.52,0,0,0-.4-.184A.521.521,0,0,0,205.663-131.275Z" transform="translate(-196.74 131.796)" fill="#515862"/>
            <path id="Path_16736" data-name="Path 16736" d="M188.065-131.275a.521.521,0,0,1-.521.521.52.52,0,0,1-.4-.184h-.272a.337.337,0,0,1-.337-.337.336.336,0,0,1,.1-.238.337.337,0,0,1,.238-.1h.272a.52.52,0,0,1,.4-.184A.521.521,0,0,1,188.065-131.275Z" transform="translate(-184.492 131.796)" fill="#515862"/>
            <path id="Path_16737" data-name="Path 16737" d="M196.057-99.313H197.3a.409.409,0,0,0,.409-.408v-.378h-2.065v.378a.409.409,0,0,0,.409.408Z" transform="translate(-190.326 111.496)" fill="#515862"/>
          </g>
          <path id="Path_16738" data-name="Path 16738" d="M20-97.842a2.853,2.853,0,0,1,2.85,2.85A2.853,2.853,0,0,1,20-92.142a2.853,2.853,0,0,1-2.85-2.85A2.853,2.853,0,0,1,20-97.842Z" transform="translate(-16.333 110.051)" fill="#515862"/>
          <g id="Group_6462" data-name="Group 6462" transform="translate(0 11.286)">
            <g id="Group_6461" data-name="Group 6461">
              <path id="Path_16739" data-name="Path 16739" d="M18.461-100.409a3.587,3.587,0,0,1,3.587,3.588,3.587,3.587,0,0,1-3.587,3.587,3.587,3.587,0,0,1-3.587-3.587A3.588,3.588,0,0,1,18.461-100.409Zm0,.806a2.782,2.782,0,0,1,2.782,2.782,2.782,2.782,0,0,1-2.782,2.782,2.782,2.782,0,0,1-2.782-2.782A2.781,2.781,0,0,1,18.461-99.6Z" transform="translate(-14.874 100.409)" fill="#515862" fill-rule="evenodd"/>
              <circle id="Ellipse_2366" data-name="Ellipse 2366" cx="1.624" cy="1.624" r="1.624" transform="translate(1.964 1.964)" fill="#515862"/>
            </g>
            <path id="Path_16740" data-name="Path 16740" d="M23.994-91.771a.482.482,0,0,1,.481.481.482.482,0,0,1-.481.481.482.482,0,0,1-.481-.481A.482.482,0,0,1,23.994-91.771Z" transform="translate(-20.407 94.877)" fill="#515862"/>
          </g>
        </g>
      </g>
    </g>
  </g>
</svg>
