<svg xmlns="http://www.w3.org/2000/svg" width="24.411" height="27.158" viewBox="0 0 24.411 27.158">
  <g id="Group_6482" data-name="Group 6482" transform="translate(-1363.025 -812.814)">
    <g id="Group_3022" data-name="Group 3022" transform="translate(1363.025 812.814)">
      <path id="Path_4796" data-name="Path 4796" d="M21.733,35.7l3.343-2.861-.052,14.122L25,46.944a26.372,26.372,0,0,0-3.292-1.012Zm8.026-7.237.559-.522L30.449,47.1h-.69Zm-1.2,1.058L29.122,29,29.253,47.1h-.69Zm-1.15,1.012.559-.522L28.1,47.1h-.69Zm5.418,15.95-.043-6.831,3.128,3,.056,2.92c-.656.14-2.083.576-3.14.909Zm-.074-12.071V32.345l3.251,2.946v2.1Zm0,3.654V36l3.251,2.946v2.1ZM22.9,45.4h1.549v.489H22.9Zm0-.836h1.549v.489H22.9Zm0-.779h1.549v.489H22.9Zm0-.836h1.549v.489H22.9Zm0-.779h1.549v.489H22.9Zm0-.821h1.549v.488H22.9Zm0-.807h1.549v.489H22.9Zm0-.822h1.549v.489H22.9Zm0-.765h1.549v.488H22.9Zm0-.772h1.549v.489H22.9Zm0-.828h1.549v.489H22.9Zm0-.793h1.549v.489H22.9Zm0-.807h1.549v.489H22.9Z" transform="translate(-16.535 -21.288)" fill="#515862" fill-rule="evenodd"/>
      <path id="Path_4797" data-name="Path 4797" d="M16.518,14.59a12.206,12.206,0,1,1-8.425-.073L8.1,15.1a11.22,11.22,0,0,0-6.51,10.327c0,6.182,4.751,11.194,10.611,11.194s10.611-5.012,10.611-11.194a11.237,11.237,0,0,0-6.279-10.221l-.02-.618Z" transform="translate(0 -11.06)" fill="#515862" fill-rule="evenodd"/>
      <path id="Path_4798" data-name="Path 4798" d="M30.339,2.7a13.127,13.127,0,0,1-1.5.191,15.684,15.684,0,0,1-3.966-.168,5.19,5.19,0,0,0-.707-.137,1.483,1.483,0,0,0,.536.466,4.581,4.581,0,0,0,2.61.42c.49,0,2.337-.145,2.815-.229a7.592,7.592,0,0,1,.935-.084c-.011.031.045.023-.114.046a.831.831,0,0,0-.137.015c-.661.115-1.3.237-1.96.359a9.294,9.294,0,0,1-2.393.244l-.262.023a2.393,2.393,0,0,0,.513.283,2.743,2.743,0,0,0,.616.183,3.756,3.756,0,0,0,1.413-.145c.467-.076.878-.168,1.334-.252a13.387,13.387,0,0,1,1.368-.244.474.474,0,0,1,.182.015,10.078,10.078,0,0,1-1.516.3c.023.153.331.237.467.237a3.758,3.758,0,0,0,.593-.084,4.148,4.148,0,0,1,1.231-.137c.9.115,1.117.962,1.368,1.306.034.053.011.03.057.046A3.634,3.634,0,0,0,33.5,3.735a2.859,2.859,0,0,0-1.048-.886,3.926,3.926,0,0,0-1.368-.542,13.386,13.386,0,0,0-1.858-.076,22.079,22.079,0,0,1-3.5-.351,4.912,4.912,0,0,1-1.459-.458c-.2-.1-.433-.206-.65-.313a5.482,5.482,0,0,0-.65-.313,1.691,1.691,0,0,0,.433.756,2.524,2.524,0,0,0,.707.466,12.3,12.3,0,0,0,5.163.687,4.449,4.449,0,0,1,.958-.038l.091.015c.023.008.011.008.023.015Zm-.524-.557c-.08-.076-1.573-.382-1.709-.413A11.8,11.8,0,0,1,24.116.4c-.114-.069-.6-.374-.684-.4a1.844,1.844,0,0,0,.433.634A4.67,4.67,0,0,0,26,1.7a16.916,16.916,0,0,0,3.294.435C29.451,2.131,29.655,2.154,29.815,2.139ZM32,1.452c.011.107.239.214.331.252.171.069.353.115.4.13.068.03.023-.008.045.046a2.28,2.28,0,0,1-.478-.1.587.587,0,0,0-.468.015,5.473,5.473,0,0,0-.707.283.414.414,0,0,1-.046.023c-.045.031-.023,0-.034.046.023.015,0,.008.034.023l.65.176a4.053,4.053,0,0,1,1.151.588,1.626,1.626,0,0,1,.239.191c.046.046.171.183.251.191.148-.214.308-1.207,1.39-1.336.285-.031.365,0,.3-.115a.428.428,0,0,0-.262-.206c-.148-.046-.08-.061-.228-.229-.456-.535-1.151-.283-1.778-.107a3.156,3.156,0,0,1-.365.084A3.843,3.843,0,0,1,32,1.452Zm2.318-.02c-.108-.051-.21-.07-.223-.04s.068.093.169.151.208.072.223.041-.025-.047-.083-.087A.661.661,0,0,0,34.322,1.432Z" transform="translate(-17.495 -0.002)" fill="#515862" fill-rule="evenodd"/>
    </g>
  </g>
</svg>
